<svg height="800" width="800" xmlns="http://www.w3.org/2000/svg" viewBox="0 0 512 512"><path d="M322.045 445.955C426.786 445.955 512 360.742 512 256S426.787 66.045 322.045 66.045h-32.852v379.91h32.852z" fill="#4d4e5c"/><path d="M289.193 445.955c-104.741 0-189.955-85.213-189.955-189.955S184.451 66.045 289.193 66.045 479.148 151.258 479.148 256c0 104.742-85.213 189.955-189.955 189.955z" fill="#626375"/><path d="M289.193 397.814c-78.197 0-141.814-63.617-141.814-141.814s63.617-141.815 141.814-141.815S431.007 177.803 431.007 256 367.39 397.814 289.193 397.814z" fill="#7dd2f0"/><path d="M289.193 349.675c-51.652 0-93.675-42.022-93.675-93.675s42.022-93.675 93.675-93.675c51.651 0 93.675 42.022 93.675 93.675 0 51.652-42.023 93.675-93.675 93.675z" fill="#ffd782"/><circle cx="289.198" cy="255.996" r="45.534" fill="#ff6465"/><path d="M289.193 264.213H59.315c-4.537 0-8.213-3.677-8.213-8.213s3.676-8.213 8.213-8.213h229.878c4.537 0 8.213 3.677 8.213 8.213s-3.676 8.213-8.213 8.213z" fill="#946c55"/><path fill="#ff8080" d="M76.836 256H21.901L0 216.051h54.934z"/><path fill="#ff6465" d="M76.836 256H21.901L0 295.949h54.934z"/></svg>