<svg width="16" height="16" fill="none" xmlns="http://www.w3.org/2000/svg"><g clip-path="url(#clip0_5_10623)"><path d="M9 8.75a.75.75 0 100-1.5.75.75 0 000 1.5zm-3 0a.75.75 0 100-1.5.75.75 0 000 1.5zm6 0a.75.75 0 100-1.5.75.75 0 000 1.5z" fill="#000"/><path d="M3.838 11.062a5.994 5.994 0 112.1 2.1v0l-2.075.587a.494.494 0 01-.613-.612l.588-2.075z" stroke="#000" stroke-width="2" stroke-linecap="round" stroke-linejoin="round"/></g><defs><clipPath id="clip0_5_10623"><path fill="#fff" d="M0 0h16v16H0z"/></clipPath></defs></svg>