<svg width="16" height="16" fill="none" xmlns="http://www.w3.org/2000/svg"><g clip-path="url(#clip0_5_10846)"><path d="M7.998 15.492a7.17 7.17 0 100-14.34 7.17 7.17 0 000 14.34z" fill="#D68F30"/><path d="M1.316 10.185v.732c.075.194.16.385.25.57v-1.302h-.25zm.818 1.379v.88c.1.14.204.28.312.413v-1.293h-.312zm1.082 1.15v.948c.122.11.247.213.375.313v-1.261h-.375zm1.333.873v1.02c.122.068.247.132.375.193v-1.213h-.375zm1.511.557v1.08c.124.035.249.066.375.095v-1.175H6.06zm1.769.192v1.151c.056.002.112.004.17.004.069 0 .137-.004.205-.005v-1.15h-.375zm1.769-.201v1.175c.126-.029.25-.061.375-.096v-1.08h-.375zm1.507-.564v1.214c.128-.061.253-.128.375-.196V13.57h-.375zm1.329-.881v1.262c.129-.1.254-.205.375-.315v-.947h-.375zm1.451-1.154h-.312v1.294c.108-.135.213-.274.312-.416v-.878zm.813-1.384h-.25v1.305c.09-.188.175-.382.25-.578v-.727z" fill="#BC6F00"/><path d="M7.998 14.848a7.17 7.17 0 100-14.34 7.17 7.17 0 000 14.34z" fill="#FFF176"/><path d="M8 14.209A6.531 6.531 0 108 1.146 6.531 6.531 0 008 14.21z" fill="#F2BC1A"/><path d="M1.458 7.927a6.437 6.437 0 01.402-2.55 6.76 6.76 0 011.395-2.21c1.213-1.282 2.973-2.025 4.746-2.034 1.774.01 3.535.752 4.745 2.036a6.734 6.734 0 011.395 2.208c.302.818.45 1.69.403 2.55h-.025a6.595 6.595 0 00-1.912-4.622 6.475 6.475 0 00-9.215 0 6.584 6.584 0 00-1.91 4.622h-.024z" fill="#E08F00"/><path d="M7.998.508a7.17 7.17 0 100 14.34 7.17 7.17 0 000-14.34zm0 13.701a6.53 6.53 0 01-6.531-6.531 6.531 6.531 0 1113.062-.001A6.532 6.532 0 018 14.209z" fill="#FFF176"/><path d="M4.748 2.668l.159.491.517-.197v.197l-.418.304.16.292v.2l-.418-.305-.419.304v-.199l.16-.292-.417-.304v-.197l.516.197.16-.491zm-1.997 2.82l.16.491.516-.197v.197l-.418.304.16.294v.197l-.418-.304-.418.304v-.197l.16-.294-.419-.304v-.197l.518.197.159-.491zm-.06 3.476l.16.491.517-.197v.197l-.417.304.16.294v.197l-.42-.303-.417.304v-.198l.16-.294-.418-.304v-.197l.517.197.159-.49zm2.133 2.76l.16.492.517-.198v.197l-.418.304.16.293v.199l-.419-.304-.417.303v-.198l.16-.293-.419-.303v-.198l.518.197.158-.49zm6.427-9.056l-.16.491-.517-.197v.197l.42.304-.16.292v.2l.417-.305.418.304v-.199l-.16-.292.418-.304v-.197l-.516.197-.16-.491zm1.997 2.82l-.16.491-.516-.197v.197l.417.304-.16.294v.197l.42-.304.417.304v-.197l-.16-.294.418-.304v-.197l-.517.197-.159-.491zm.059 3.476l-.16.491-.516-.197v.197l.417.304-.16.294v.197l.419-.303.417.304v-.198l-.16-.294.42-.304v-.197l-.518.197-.16-.49zm-2.133 2.76l-.16.492-.516-.198v.197l.418.304-.16.293v.199l.418-.304.418.303v-.198l-.16-.293.419-.303v-.198l-.518.197-.159-.49z" fill="#D38200"/><path d="M11.176 11.527l.159.491h.517l-.418.304.16.491-.418-.304-.418.304.16-.491-.418-.304h.516l.16-.491zm2.133-2.759l.159.491h.517l-.419.304.16.492-.417-.304-.419.304.16-.492-.418-.304h.517l.16-.49zm-.059-3.476l.159.491h.517l-.418.304.16.491-.418-.304-.419.304.16-.491-.417-.304h.516l.16-.491zM11.252 2.47l.16.49h.517l-.418.305.16.49-.418-.303-.418.304.16-.491-.419-.304h.518l.159-.491z" fill="#FFF176"/><path d="M8.004 12.813l.16.49.517-.197v.198l-.418.303.16.294v.198l-.419-.304-.417.304V13.9l.16-.293-.419-.304v-.198l.518.198.158-.492z" fill="#D38200"/><path d="M8.004 12.55l.16.492h.517l-.418.304.16.491-.419-.304-.417.304.16-.491-.419-.304h.518l.158-.491z" fill="#FFF176"/><path d="M8.004 1.611l.16.492.517-.198v.198l-.418.303.16.294v.198l-.419-.304-.417.304V2.7l.16-.294-.419-.303v-.198l.518.198.158-.492z" fill="#D38200"/><path d="M8.006 1.414l.16.491h.516l-.418.304.16.491-.418-.303-.418.303.16-.49-.419-.305h.518l.159-.49zM4.824 11.527l-.158.49h-.518l.419.305-.16.49.417-.303.42.304-.16-.491.417-.304h-.517l-.16-.491zm-2.132-2.76l-.159.492h-.517l.418.304-.16.491.418-.304.419.304-.16-.491.417-.304h-.516l-.16-.491zm.059-3.475l-.16.49h-.517l.42.305-.16.49.417-.303.418.304-.16-.491.418-.304H2.91l-.16-.491zM4.748 2.47l-.16.492h-.516l.417.303-.16.492.42-.304.417.304-.16-.492.418-.303h-.517l-.159-.492z" fill="#FFF176"/><path d="M11.902 6.025c0-.043-7.797 0-7.797 0l-.07.21v.359c0 .065.052.118.117.118h7.695a.117.117 0 00.118-.118v-.349l-.063-.22zm.011 4.663H4.137l-.52.261.006.336a.069.069 0 00.07.067h8.615a.069.069 0 00.07-.067l.005-.33-.47-.267z" fill="#D38200"/><path d="M5.393 9.664h-.447c-.074 0-.134-.232-.134-.306l.714-.023c0 .074-.06.33-.133.33zm.153-2.414h-.754a.127.127 0 01-.121-.09l-.06-.492h1.105l-.05.491a.125.125 0 01-.12.091zm-.754 2.563h.754c.056 0 .167.035.182.089 0 0-.004.234-.004.326s-.037.16-.12.16h-.87c-.083 0-.12-.075-.12-.16s-.005-.324-.005-.324c.017-.054.127-.091.183-.091zm6.414-.149h-.448c-.074 0-.134-.232-.134-.306l.714-.023c0 .074-.059.33-.132.33zm.152-2.414h-.754a.127.127 0 01-.12-.09l-.06-.492h1.104l-.05.491a.124.124 0 01-.12.091zm-.754 2.563h.754c.056 0 .168.035.183.089 0 0-.004.234-.004.326s-.038.16-.121.16h-.87c-.083 0-.12-.075-.12-.16s-.004-.324-.004-.324c.016-.054.126-.091.182-.091zm-1.336-.149h-.447c-.074 0-.134-.232-.134-.306l.714-.023c0 .074-.06.33-.133.33zm.153-2.414h-.754a.127.127 0 01-.121-.09l-.06-.492h1.105l-.05.491a.125.125 0 01-.12.091zm-.754 2.563h.754c.056 0 .167.035.182.089 0 0-.004.234-.004.326s-.037.16-.12.16h-.87c-.083 0-.12-.075-.12-.16s-.005-.324-.005-.324c.017-.054.127-.091.183-.091zM7.33 9.664h-.448c-.074 0-.134-.232-.134-.306l.714-.023c0 .074-.059.33-.132.33zm.152-2.414H6.73a.127.127 0 01-.12-.09l-.06-.492h1.104l-.05.491a.125.125 0 01-.12.091zM6.73 9.813h.754c.056 0 .168.035.183.089 0 0-.004.234-.004.326s-.038.16-.121.16h-.87c-.083 0-.12-.075-.12-.16s-.004-.324-.004-.324c.016-.054.126-.091.182-.091z" fill="#D38200"/><path d="M11.959 5.69a.123.123 0 00-.056-.104L8.005 3.373l-3.902 2.21a.126.126 0 00-.062.108l-.006.546c0 .069.056.125.125.125h7.679a.125.125 0 00.125-.125l-.005-.546z" fill="#FFF176"/><path d="M10.98 5.54L8 3.85 5.02 5.54h5.96z" fill="#F2BC1A"/><path d="M9.885 5.336l-1.883-1.07-1.884 1.07h3.767zm1.79 4.917H4.328a.257.257 0 00-.19.085l-.505.564a.06.06 0 00.045.1h8.647a.06.06 0 00.045-.1l-.506-.564a.254.254 0 00-.189-.085zm-.47-.814h-.447a.134.134 0 01-.134-.133V7.308c0-.074.06-.134.134-.134h.447c.074 0 .134.06.134.134v1.999c0 .074-.06.132-.134.132zm.154-2.413h-.754a.127.127 0 01-.12-.092l-.058-.198a.125.125 0 01.12-.16h.87c.083 0 .143.08.12.16l-.057.198a.128.128 0 01-.12.092zm-.755 2.563h.754c.056 0 .105.038.121.092l.058.198a.125.125 0 01-.122.16h-.868a.126.126 0 01-.122-.16l.058-.198a.127.127 0 01.121-.092zm-5.211-.15h-.448a.134.134 0 01-.133-.133V7.308c0-.074.06-.134.133-.134h.448c.074 0 .134.06.134.134v1.999a.134.134 0 01-.134.132zm.152-2.413h-.753a.127.127 0 01-.122-.092l-.057-.198a.125.125 0 01.121-.16h.869c.084 0 .144.08.121.16l-.057.198a.127.127 0 01-.122.092zm-.753 2.563h.753c.057 0 .105.038.122.092l.057.198a.125.125 0 01-.121.16h-.869a.126.126 0 01-.121-.16l.057-.198a.126.126 0 01.122-.092zm2.538-.15h-.447a.134.134 0 01-.134-.133V7.308c0-.074.06-.134.134-.134h.447c.074 0 .134.06.134.134v1.999a.134.134 0 01-.134.132zm.153-2.413h-.754a.127.127 0 01-.121-.092l-.058-.198a.125.125 0 01.122-.16h.868c.084 0 .144.08.122.16l-.058.198a.127.127 0 01-.121.092zm-.754 2.563h.754c.056 0 .105.038.121.092l.058.198a.125.125 0 01-.122.16h-.868a.126.126 0 01-.122-.16l.058-.198a.126.126 0 01.121-.092zm2.539-.15H8.82a.134.134 0 01-.133-.133V7.308c0-.074.06-.134.133-.134h.448c.074 0 .134.06.134.134v1.999a.134.134 0 01-.134.132zm.152-2.413h-.753a.127.127 0 01-.122-.092l-.057-.198a.125.125 0 01.121-.16h.869c.084 0 .144.08.121.16l-.057.198a.127.127 0 01-.122.092zm-.753 2.563h.753c.057 0 .105.038.122.092l.057.198a.125.125 0 01-.121.16h-.869a.126.126 0 01-.121-.16l.057-.198a.127.127 0 01.122-.092z" fill="#FFF176"/></g><defs><clipPath id="clip0_5_10846"><path fill="#fff" d="M0 0h16v16H0z"/></clipPath></defs></svg>