<svg width="18" height="18" fill="none" xmlns="http://www.w3.org/2000/svg"><path d="M17 1H1v16h16V1z" stroke="#161313" stroke-width=".125"/><path d="M4 9.725V14a.5.5 0 00.5.5h9a.5.5 0 00.5-.5V9.725M4.375 3.5h9.25a.506.506 0 01.481.362L15 7H3l.894-3.138a.506.506 0 01.481-.362v0z" stroke="#161313" stroke-width="2" stroke-linecap="round" stroke-linejoin="round"/><path d="M7 7v1a2 2 0 11-4 0V7m8 0v1a2 2 0 11-4 0V7m8 0v1a2 2 0 11-4 0V7" stroke="#161313" stroke-width="2" stroke-linecap="round" stroke-linejoin="round"/></svg>