<svg width="14" height="10" fill="none" xmlns="http://www.w3.org/2000/svg"><g clip-path="url(#clip0_5_11064)"><path d="M7.683 4.335L5 1.666l-2.683 2.67a.278.278 0 10.391.386l2.014-1.998v5.314a.278.278 0 10.556 0V2.724l2.014 1.998a.278.278 0 00.391-.395v.008z" fill="#403F3F"/></g><g clip-path="url(#clip1_5_11064)"><path d="M11.683 5.665L9 8.334l-2.683-2.67a.278.278 0 11.391-.386l2.014 1.998V1.962a.278.278 0 11.556 0v5.314l2.013-1.998a.278.278 0 01.392.395v-.008z" fill="#403F3F"/></g><defs><clipPath id="clip0_5_11064"><path fill="#fff" d="M0 0h10v10H0z"/></clipPath><clipPath id="clip1_5_11064"><path fill="#fff" transform="matrix(1 0 0 -1 4 10)" d="M0 0h10v10H0z"/></clipPath></defs></svg>