<svg width="13" height="15" fill="none" xmlns="http://www.w3.org/2000/svg"><path d="M12.515 9.842l.47-2.72a1.11 1.11 0 00-1.093-1.3H8.438a.555.555 0 01-.548-.646l.442-2.696a3.189 3.189 0 00-.06-1.316 1.09 1.09 0 00-.728-.758L7.447.375a.897.897 0 00-.662.045.843.843 0 00-.454.546l-.317 1.222c-.1.39-.248.765-.437 1.12-.277.518-.705.933-1.15 1.316l-.96.827a1.113 1.113 0 00-.38.937l.54 6.262a1.11 1.11 0 001.106 1.016h3.1c2.32 0 4.301-1.618 4.682-3.824z" fill="#4F0DA3"/><path fill-rule="evenodd" clip-rule="evenodd" d="M.979 5.323a.5.5 0 01.52.456l.646 7.491a.825.825 0 11-1.645.071V5.822a.5.5 0 01.479-.5z" fill="#4F0DA3"/></svg>