<svg width="14" height="13" fill="none" xmlns="http://www.w3.org/2000/svg"><g clip-path="url(#clip0_5_6952)"><path d="M2.266 2.238a1.42 1.42 0 00-1.42 1.42v5.68a1.42 1.42 0 001.42 1.421h9.468a1.42 1.42 0 001.42-1.42v-5.68a1.42 1.42 0 00-1.42-1.42H2.266zm0 .947h9.468c.26 0 .473.213.473.473v.237L7 6.706l-5.207-2.81v-.238c0-.26.212-.473.473-.473zm-.473.843L4.885 6.44 1.852 9.546l3.699-2.633L7 7.845l1.45-.932 3.698 2.633L9.116 6.44l3.091-2.41v5.31a.45.45 0 01-.059.207.468.468 0 01-.414.266H2.266a.467.467 0 01-.414-.266.452.452 0 01-.06-.207V4.03z" fill="#fff"/></g><defs><clipPath id="clip0_5_6952"><path fill="#fff" transform="translate(.846 .346)" d="M0 0h12.308v12.308H0z"/></clipPath></defs></svg>