<svg width="33" height="30" fill="none" xmlns="http://www.w3.org/2000/svg"><path d="M16.55 25.927c6.627 0 12-4.786 12-10.69s-5.373-10.69-12-10.69c-6.628 0-12 4.786-12 10.69s5.372 10.69 12 10.69z" stroke="#fff" stroke-opacity=".8" stroke-width="2" stroke-miterlimit="10"/><path d="M16.55 16.573c.828 0 1.5-.598 1.5-1.336 0-.738-.672-1.336-1.5-1.336-.829 0-1.5.598-1.5 1.336 0 .738.671 1.336 1.5 1.336zm6 0c.828 0 1.5-.598 1.5-1.336 0-.738-.672-1.336-1.5-1.336-.829 0-1.5.598-1.5 1.336 0 .738.671 1.336 1.5 1.336zm-12 0c.828 0 1.5-.598 1.5-1.336 0-.738-.672-1.336-1.5-1.336-.829 0-1.5.598-1.5 1.336 0 .738.671 1.336 1.5 1.336z" fill="#fff"/></svg>