<svg width="16" height="16" fill="none" xmlns="http://www.w3.org/2000/svg"><g clip-path="url(#clip0_5_10647)"><path fill-rule="evenodd" clip-rule="evenodd" d="M7.332 2.667a2 2 0 100 4 2 2 0 000-4zm-3.333 2a3.333 3.333 0 116.666 0 3.333 3.333 0 01-6.666 0zM2.94 11.735c-.216.273-.276.48-.276.599 0 .081.025.167.17.284.166.133.455.271.896.388.879.233 2.142.328 3.601.328.148 0 .294-.001.439-.003a.667.667 0 11.018 1.333c-.151.002-.304.003-.457.003-1.486 0-2.89-.093-3.942-.372-.523-.138-1.016-.337-1.39-.637-.395-.317-.668-.76-.668-1.324 0-.525.239-1.015.563-1.426.329-.417.784-.8 1.318-1.127 1.069-.651 2.522-1.114 4.119-1.114.298 0 .591.016.877.047a.667.667 0 01-.14 1.326 6.851 6.851 0 00-.737-.04c-1.349 0-2.562.394-3.424.92-.431.263-.757.548-.967.815zm11.53-1.022a.667.667 0 00-.943-.943l-2.121 2.121-.943-.942a.666.666 0 00-.943.942l1.367 1.367a.733.733 0 001.037 0l2.546-2.545z" fill="#000"/></g><defs><clipPath id="clip0_5_10647"><path fill="#fff" d="M0 0h16v16H0z"/></clipPath></defs></svg>