<svg width="16" height="16" fill="none" xmlns="http://www.w3.org/2000/svg"><mask id="a" style="mask-type:luminance" maskUnits="userSpaceOnUse" x="2" y="0" width="13" height="16"><path d="M10.003 10c1 0 1.666.627 1.666 1.334h2v-10h-2c0 .667-.666 1.333-1.666 1.333-1 0-1.667-.666-1.667-1.333h-2v4.667" stroke="#fff" stroke-width="1.333" stroke-linecap="round" stroke-linejoin="round"/><path d="M10.001 14.668h-2c0-.707-.666-1.333-1.666-1.333-1 0-1.667.626-1.667 1.333h-2v-10h2c0 .667.667 1.333 1.667 1.333S8 5.335 8 4.668h2v10z" fill="#fff" stroke="#fff" stroke-width="1.333" stroke-linecap="round" stroke-linejoin="round"/><path d="M4.667 8.667a.667.667 0 100-1.333.667.667 0 000 1.333zm1.668 0a.667.667 0 100-1.333.667.667 0 000 1.333zm1.668 0a.667.667 0 100-1.333.667.667 0 000 1.333z" fill="#000"/></mask><g mask="url(#a)"><path d="M0 0h16v16H0V0z" fill="#000"/></g></svg>