<svg width="18" height="18" fill="none" xmlns="http://www.w3.org/2000/svg"><path d="M14.806 7.048V4.443c0-1.206-1.132-2.056-2.41-2.056H5.604c-1.277 0-2.41.85-2.41 2.056v2.605h11.614z" fill="#6965A8"/><path d="M2.322 9.518h-.9C.755 9.518.203 9.052.203 8.42c0-.63.552-1.097 1.22-1.097h1.19m13.064 2.195h.9c.668 0 1.22-.466 1.22-1.097 0-.63-.552-1.097-1.22-1.097h-1.19" fill="#8989CC"/><path d="M16.055 11.159H1.945l.842-6.58h12.426l.842 6.58z" fill="#6965A8"/><path d="M15.358 11.159H2.642l.842-6.58h11.032l.842 6.58z" fill="#fff"/><path d="M14.488 4.578l.87 6.58H2.613" fill="#EAEAEA"/><path d="M14.806 13.08v-2.797c0-1.206-1.132-2.138-2.41-2.138H5.604c-1.277 0-2.41.96-2.41 2.138v2.797h11.614z" fill="#8989CC"/><path d="M18 16.096v-3.92c0-1.454-1.248-2.66-2.758-2.66H2.758C1.248 9.516 0 10.722 0 12.176v3.919h18z" fill="#6965A8"/><path d="M3.339 13.11a1.625 1.625 0 01-2.207 0 1.416 1.416 0 010-2.084 1.625 1.625 0 012.207 0c.61.575.61 1.508 0 2.084z" fill="#FFC114"/><path d="M3.338 11.023c.61.576.61 1.508 0 2.084a1.625 1.625 0 01-2.206 0" fill="#FF8A15"/><path d="M15.764 13.547c.866 0 1.568-.663 1.568-1.48 0-.818-.702-1.481-1.568-1.481-.866 0-1.568.663-1.568 1.48 0 .818.702 1.481 1.568 1.481z" fill="#FFC114"/><path d="M16.868 11.023c.61.576.61 1.508 0 2.084a1.625 1.625 0 01-2.207 0" fill="#FF8A15"/><path d="M13.645 14.175v-2.22c0-.988-.784-1.893-1.83-1.893H6.214c-1.046 0-1.859.905-1.859 1.892v2.221h9.29z" fill="#C4C4C4"/><path d="M6.097 14.175h7.548v-2.22c0-.988-.784-1.893-1.829-1.893" fill="#A8A8A8"/><path d="M5.517 13.628V11.38c0-.165.116-.302.29-.302s.29.137.29.302v2.248m.581 0V11.38c0-.165.116-.302.29-.302s.29.137.29.302v2.248m.872 0V11.38c0-.165.116-.302.29-.302s.29.137.29.302v2.248m.58 0V11.38c0-.165.117-.302.291-.302s.29.137.29.302v2.248m.871 0V11.38c0-.165.117-.302.29-.302.175 0 .291.137.291.302v2.248m.58 0V11.38c0-.165.116-.302.29-.302.175 0 .291.137.291.302v2.248" fill="#6965A8"/><path d="M0 16.097A1.12 1.12 0 011.103 15h15.794c.61 0 1.103.493 1.103 1.07M2.787 4.717c0-.412.349-.686.755-.686h10.916c.436 0 .755.302.755.713" fill="#8989CC"/><path d="M5.806 2.386v-.713c0-.247.175-.466.436-.466s.435.22.435.466v.713m4.646 0v-.713c0-.247.174-.466.435-.466.262 0 .436.22.436.466v.713" fill="#FF8A15"/></svg>