<svg width="18" height="18" fill="none" xmlns="http://www.w3.org/2000/svg"><g clip-path="url(#clip0_1659_12533)"><path d="M7.776 14.478c3.107 0 5.626-2.379 5.626-5.313 0-2.935-2.519-5.313-5.626-5.313S2.15 6.23 2.15 9.165c0 2.934 2.52 5.313 5.626 5.313z" fill="#FF9690"/><path d="M7.776 13.037c2.264 0 4.1-1.733 4.1-3.872 0-2.138-1.836-3.872-4.1-3.872-2.265 0-4.1 1.734-4.1 3.872 0 2.139 1.835 3.872 4.1 3.872z" fill="#FD3B6D"/><path d="M2.15 3.853h11.252c0-4.455-11.252-4.455-11.252 0z" fill="#FC7576"/><path d="M11.754 16.794c-2.261 0-4.1-1.737-4.1-3.873s1.839-3.874 4.1-3.874c2.262 0 4.1 1.736 4.1 3.872s-1.838 3.875-4.1 3.875z" fill="#FFD37D"/><path d="M5.571 9.379a.358.358 0 00-.369.348c0 .194.164.349.37.349a.358.358 0 00.368-.349c.005-.189-.162-.348-.369-.348zm1.287 1.607a.36.36 0 00.37-.348.36.36 0 00-.37-.349.36.36 0 00-.369.349.36.36 0 00.37.348z" fill="#000030"/><path d="M13.784 9.149c-.006-2.12-1.248-3.968-3.08-4.937h2.7a.37.37 0 00.38-.36c0-1.168-.675-2.144-1.955-2.82-1.076-.567-2.514-.88-4.053-.88-1.54 0-2.98.313-4.055.88-1.276.674-1.955 1.652-1.955 2.82 0 .2.173.36.38.36h2.7c-1.836.973-3.08 2.826-3.08 4.954 0 3.122 2.686 5.666 5.992 5.672.743 1.375 2.255 2.314 3.994 2.314 2.471 0 4.483-1.9 4.483-4.233 0-1.643-1-3.07-2.45-3.77zM2.562 3.493c.158-.916.9-1.494 1.533-1.83.95-.501 2.293-.79 3.681-.79 1.389 0 2.732.289 3.682.79.632.336 1.374.914 1.532 1.83H2.562zm-.029 5.673c0-2.73 2.352-4.954 5.245-4.954 2.782 0 5.068 2.059 5.237 4.645a4.616 4.616 0 00-.777-.146 4.105 4.105 0 00-1.332-2.58 4.628 4.628 0 00-3.13-1.197c-2.47 0-4.482 1.9-4.482 4.234 0 1.105.45 2.155 1.269 2.95a4.548 4.548 0 002.732 1.258c.029.253.08.497.155.733-2.741-.16-4.917-2.315-4.917-4.943zm4.75 3.479c-1.811-.232-3.224-1.724-3.224-3.48 0-1.936 1.667-3.512 3.72-3.512 1.863 0 3.438 1.334 3.683 3.045-2.239.138-4.035 1.834-4.179 3.947zm4.472 3.789c-1.524 0-2.831-.867-3.407-2.106 0-.004-.005-.006-.005-.01a3.31 3.31 0 01-.306-1.395c0-1.936 1.668-3.513 3.72-3.513.526 0 1.026.102 1.48.293 1.315.542 2.237 1.781 2.237 3.222-.002 1.934-1.67 3.509-3.72 3.509z" fill="#000030"/></g><defs><clipPath id="clip0_1659_12533"><path fill="#fff" transform="translate(0 .152)" d="M0 0h18v17H0z"/></clipPath></defs></svg>