<svg width="18" height="19" fill="none" xmlns="http://www.w3.org/2000/svg"><g clip-path="url(#clip0_1659_12504)"><path d="M15.688 12.423c-.805-3.009-2.095-5.256-4.26-6.18v1.159L8.963 6.277 6.494 7.402V6.288c-2.121.942-3.39 3.171-4.187 6.148-.448 1.674-.715 5.246-.715 5.246h14.816s-.272-3.585-.72-5.26z" fill="#DE5E88"/><path d="M5.853 9.22a.466.466 0 01-.46-.377.467.467 0 01.552-.553.476.476 0 01.24.129.474.474 0 01-.071.723.5.5 0 01-.17.07.466.466 0 01-.091.009z" fill="#000"/><path d="M3.397 16.04c.123-1.122.297-2.423.499-3.178.261-.977.569-1.825.92-2.536a9.01 9.01 0 01.118-.232" fill="#DE5E88"/><path d="M3.397 16.51a.47.47 0 01-.467-.52c.111-1.028.291-2.425.511-3.248.268-1.003.589-1.885.952-2.623.041-.082.083-.165.125-.244a.47.47 0 01.83.44 8.897 8.897 0 00-.112.22c-.336.682-.635 1.506-.887 2.45-.205.765-.377 2.112-.485 3.107a.47.47 0 01-.467.418z" fill="#000"/><path d="M11.429 4.242L8.96 5.367 6.494 4.242v3.159l2.467-1.125L11.43 7.4V4.242z" fill="#FECC85"/><path d="M10.902.626c-.68 0-1.524.435-1.899.432-.37-.003-1.201-.433-1.906-.433-1.019 0-1.246.616-1.003 1.866.056.286.272 1.07.476 1.79l2.391 1.09 2.454-1.118c.211-.711.432-1.477.49-1.76.244-1.203.016-1.867-1.003-1.867z" fill="#BBDCE3"/><path d="M16.877 17.647c-.012-.148-.281-3.649-.735-5.345-.884-3.304-2.274-5.388-4.243-6.36v-1.67c.26-.88.418-1.45.466-1.688.184-.906.113-1.521-.225-1.935-.269-.329-.686-.496-1.238-.496-.461 0-.954.158-1.35.286-.193.062-.457.146-.544.146-.084 0-.338-.082-.523-.142-.402-.13-.904-.29-1.387-.29-.558 0-.976.163-1.242.485-.336.408-.404 1.006-.223 1.94.044.225.18.746.406 1.548a.47.47 0 00-.015.118v1.749c-1.93.984-3.297 3.056-4.17 6.322-.455 1.697-.72 5.185-.73 5.333a.47.47 0 00.468.504h14.816a.47.47 0 00.469-.505zM8.809 5.833a.472.472 0 00-.043.017l-1.802.822V4.974l1.802.822a.469.469 0 00.044.018c.004 0 .007.002.011.003l.02.006-.018.006-.014.004zm.304 0l-.012-.004-.019-.006.019-.006.012-.004a.466.466 0 00.043-.017l1.803-.822v1.698L9.156 5.85a.474.474 0 00-.043-.017zM6.581 1.236c.079-.096.253-.144.517-.144.336 0 .741.13 1.099.246.322.103.576.185.803.187h.007c.235 0 .512-.089.832-.192.351-.112.749-.24 1.063-.24.257 0 .429.05.51.151.08.097.19.377.032 1.153-.029.143-.126.523-.419 1.514l-.853.39-1.21.552-1.999-.912c-.285-1.011-.38-1.398-.408-1.542-.154-.797-.05-1.07.026-1.163zM2.102 17.213c.091-1.037.326-3.411.659-4.655.73-2.733 1.802-4.536 3.263-5.483v.327c0 .16.082.31.216.396a.46.46 0 00.056.03l.021.009.038.014.025.006a.481.481 0 00.1.014l.014.001h.015a.482.482 0 00.055-.006c.007 0 .013-.002.02-.003a.446.446 0 00.037-.009l.016-.004a.469.469 0 00.052-.02l2.272-1.037 2.273 1.037a.47.47 0 00.665-.428v-.386c1.498.936 2.593 2.754 3.335 5.529.333 1.244.57 3.628.663 4.668H2.102z" fill="#000"/></g><defs><clipPath id="clip0_1659_12504"><path fill="#fff" transform="translate(0 .152)" d="M0 0h18v18H0z"/></clipPath></defs></svg>