<svg width="17" height="18" fill="none" xmlns="http://www.w3.org/2000/svg"><g clip-path="url(#clip0_1659_12581)"><path d="M8.765 6.979l-1.099.634a.526.526 0 01-.79-.455V4.62a.527.527 0 01.821-.437l1.068.617.027.016 1.07.618a.525.525 0 01-.007.914l-1.09.63zm6.819-5.588H1.417c-.584 0-1.063.478-1.063 1.062v7.933h16.292V2.453c0-.584-.478-1.062-1.062-1.062z" fill="#ABB8B9"/><path d="M7.667 7.614l1.098-.635 1.09-.63a.525.525 0 00.006-.914l-1.069-.618-.027-.017-1.067-.616a.527.527 0 00-.822.437v2.537h.001a.526.526 0 00.79.455z" fill="#D12D4E"/><path d="M16.646 10.387H.354v1.275c0 .584.479 1.062 1.063 1.062h14.167c.584 0 1.062-.478 1.062-1.062v-1.275zm-6.057 2.34H6.413l-.354 1.77h4.884l-.354-1.77z" fill="#FCD051"/><path d="M10.943 14.492H5.667a.71.71 0 00-.708.708v.709h7.083V15.2a.71.71 0 00-.708-.708h-.391z" fill="#FCD051"/><path d="M15.583 1.04H1.417C.635 1.04 0 1.674 0 2.455v9.208c0 .781.635 1.417 1.417 1.417H5.98l-.212 1.062h-.101c-.586 0-1.063.477-1.063 1.063v.708c0 .196.159.354.354.354h7.084a.354.354 0 00.354-.354v-.708c0-.586-.477-1.063-1.063-1.063h-.1l-.213-1.062h4.563c.781 0 1.417-.636 1.417-1.417V2.456c0-.781-.636-1.417-1.417-1.417zm-14.166.707h14.166a.71.71 0 01.709.709v7.579H.708v-7.58a.71.71 0 01.709-.708zm10.27 13.459v.354H5.313v-.354c0-.196.158-.354.354-.354h5.666c.195 0 .354.158.354.354zm-1.177-1.063H6.49l.212-1.062h3.595l.213 1.062zm5.073-1.77H1.417a.71.71 0 01-.709-.709v-.92h15.584v.92a.71.71 0 01-.709.708z" fill="#000003"/><path d="M6.64 7.602a.883.883 0 001.203.32L8.94 7.29a.376.376 0 00.023-.015l1.065-.615a.878.878 0 00.01-1.529l-1.063-.612a.828.828 0 00-.035-.022l-1.058-.61a.882.882 0 00-1.362.739V7.16l.001.037c.006.142.047.28.118.404zm.589-2.978a.173.173 0 01.269-.144l.021.013 1.069.617.008.005a.362.362 0 00.018.011l1.07.618a.17.17 0 01-.001.297.18.18 0 00-.005.003l-1.091.63a.39.39 0 00-.024.015l-1.075.62a.17.17 0 01-.258-.148l-.001-.028v-2.51zM1.771 6.816a.354.354 0 00-.354.355v1.8a.354.354 0 00.708 0v-1.8a.354.354 0 00-.354-.355zm0-.306a.354.354 0 00.354-.354v-.009a.354.354 0 10-.708 0v.009c0 .195.159.354.354.354zM15.23 4.962a.354.354 0 00.353-.355v-1.8a.354.354 0 00-.708 0v1.8c0 .196.159.355.354.355zm-.001 1.028a.354.354 0 00.354-.354v-.008a.354.354 0 10-.708 0v.008c0 .196.158.354.354.354z" fill="#000003"/></g><defs><clipPath id="clip0_1659_12581"><path fill="#fff" transform="translate(0 .152)" d="M0 0h17v17H0z"/></clipPath></defs></svg>