<svg width="18" height="19" fill="none" xmlns="http://www.w3.org/2000/svg"><g clip-path="url(#clip0_1659_12463)"><path d="M12.683.883A5.71 5.71 0 009 2.262 5.71 5.71 0 005.317.882C2.335.883 0 3.219 0 6.2c0 3.604 2.51 5.807 6.307 9.141a381.093 381.093 0 011.012.89l1.146.99a.817.817 0 001.07 0l1.147-.99a.21.21 0 00.007-.006c2.27-2.008 3.972-3.544 5.203-5.043C17.33 9.43 18 7.847 18 6.199 18 3.22 15.665.883 12.683.883z" fill="#D8143A"/><path d="M12.683.883A5.71 5.71 0 009 2.262 5.71 5.71 0 005.317.882C2.335.883 0 3.219 0 6.2c0 3.604 2.51 5.807 6.307 9.141a381.093 381.093 0 011.012.89l1.146.99a.817.817 0 001.07 0l1.147-.99a.21.21 0 00.007-.006c2.27-2.008 3.972-3.544 5.203-5.043C17.33 9.43 18 7.847 18 6.199 18 3.22 15.665.883 12.683.883z" fill="#D8143A"/><path d="M10.091 7.518V5.336H7.91v2.182H5.727v2.183h2.182v2.182h2.182V9.7h2.182V7.518h-2.182z" fill="#830018"/><path d="M6.307 15.34l1.004.884.008.006 1.146.99a.817.817 0 00.535.2v-5.54H7.909V9.696H5.727V7.515h2.182V5.332H9v-3.07A5.71 5.71 0 005.317.882C2.335.883 0 3.219 0 6.2c0 3.604 2.51 5.807 6.307 9.141z" fill="#B8002B"/></g><defs><clipPath id="clip0_1659_12463"><path fill="#fff" transform="translate(0 .152)" d="M0 0h18v18H0z"/></clipPath></defs></svg>