<svg width="17" height="19" fill="none" xmlns="http://www.w3.org/2000/svg"><g clip-path="url(#clip0_1659_12478)"><path d="M8.227 7.75a.18.18 0 00-.136-.063H1.144a.18.18 0 00-.136.063.203.203 0 00-.048.148l.72 9.989a.19.19 0 00.184.18h5.601v-4.143c.097 0 .276 1.19.283 1.089l.528-7.115a.203.203 0 00-.049-.148zm-5.603 7.688a1.402 1.402 0 01-.22-.757c0-.28.081-.541.22-.757v1.514z" fill="#FBAE2E"/><path opacity=".15" d="M3.252 15.437v-1.515c-.139.216-.22.477-.22.758 0 .28.081.54.22.757zm-.944 2.45l-.72-9.989a.203.203 0 01.048-.148.18.18 0 01.136-.063h-.628a.18.18 0 00-.136.063.203.203 0 00-.048.148l.72 9.989a.19.19 0 00.184.18h.629a.19.19 0 01-.185-.18z" fill="#202020"/><path d="M7.965.463L7.375.25a.175.175 0 00-.14.01.192.192 0 00-.094.111L5.704 4.798c-.02.06-.01.125.024.177a.184.184 0 00.15.082h.66c.079 0 .15-.053.175-.132L8.08.712a.199.199 0 00-.115-.249z" fill="#DCE0E2"/><path d="M8.32 4.938H.915a.19.19 0 00-.185.195V6.6a.19.19 0 00.185.196H8.32a.19.19 0 00.184-.196V5.133a.19.19 0 00-.184-.196z" fill="#F7BF6D"/><path opacity=".15" d="M1.359 6.6V5.133a.19.19 0 01.184-.196H.915a.19.19 0 00-.185.196V6.6a.19.19 0 00.185.196h.629a.19.19 0 01-.185-.196z" fill="#202020"/><path d="M1.013 8.636h7.21l.068-.948H.944l.069.948z" fill="#F7BF6D"/><path d="M1.013 8.634h7.21l.135-1.689H.884l.129 1.689z" fill="#F7BF6D"/><path d="M15.72 13.324H3.685c-.707 0-1.28.607-1.28 1.355s.573 1.355 1.28 1.355H15.72c.707 0 1.28-.607 1.28-1.355s-.573-1.355-1.28-1.355z" fill="#E95353"/><path d="M9.234 6.841c0-.35-.268-.634-.599-.634H.6c-.33 0-.599.284-.599.634v.212c0 .35.268.634.599.634h8.036c.331 0 .6-.284.6-.634V6.84z" fill="#8C5549"/><path opacity=".15" d="M.944 7.688l.069.948h.628l-.068-.948H.944zm-.316-.635V6.84c0-.35.268-.634.6-.634h-.63c-.33 0-.599.284-.599.634v.212c0 .35.268.634.599.634h.628c-.33 0-.599-.284-.599-.634z" fill="#202020"/><path d="M5.585 13.324l-.267.29a.306.306 0 00.005.416.268.268 0 00.392-.006l.587-.637a.292.292 0 00.044-.063h-.76zm1.865 0l-.267.29a.306.306 0 00.005.416.268.268 0 00.194.083c.072 0 .144-.03.198-.089l.587-.637a.296.296 0 00.044-.063h-.76zm1.866 0l-.267.29a.306.306 0 00.005.416.269.269 0 00.193.083c.072 0 .144-.03.199-.089l.586-.637a.297.297 0 00.044-.063h-.76zm1.864 0l-.266.29a.306.306 0 00.005.416.268.268 0 00.392-.006l.586-.637a.295.295 0 00.044-.063h-.76zm1.866 0l-.267.29a.306.306 0 00.005.416.268.268 0 00.392-.006l.586-.637a.291.291 0 00.044-.063h-.76z" fill="#F96969"/><path opacity=".15" d="M3.033 14.68c0-.75.572-1.356 1.28-1.356h-.63c-.706 0-1.279.607-1.279 1.355s.573 1.355 1.28 1.355h.176c.001-.029.003-.057.006-.085-.487-.192-.833-.688-.833-1.27z" fill="#202020"/><path d="M14.215 14.68H5.189c-.735 0-1.33.63-1.33 1.409v.568c0 .778.595 1.409 1.33 1.409h9.026c.735 0 1.33-.63 1.33-1.409v-.569c0-.778-.595-1.408-1.33-1.408z" fill="#F7BD63"/><path opacity=".15" d="M4.487 16.657v-.569c0-.778.596-1.408 1.33-1.408H5.19c-.735 0-1.33.63-1.33 1.409v.568c0 .778.595 1.409 1.33 1.409h.629c-.735 0-1.331-.63-1.331-1.409z" fill="#202020"/></g><defs><clipPath id="clip0_1659_12478"><path fill="#fff" transform="translate(0 .152)" d="M0 0h17v18H0z"/></clipPath></defs></svg>