<svg width="18" height="18" fill="none" xmlns="http://www.w3.org/2000/svg"><g clip-path="url(#clip0_1659_12513)"><path d="M13.525 9.405L.891 10.439 0 10.512V3.974s.338-.13.89-.189c1.001-.105 2.705.027 4.374 1.604 2.592 2.448 4.01 1.033 6.277 1.76 1.32.422 1.775 1.118 1.926 1.625.107.364.058.63.058.63z" fill="#8DE0A8"/><path d="M1.295 5.865a.305.305 0 01-.29-.203.28.28 0 01.104-.31c.215-.158.532.023.486.275a.302.302 0 01-.3.238zm0 1.34a.305.305 0 01-.29-.204.28.28 0 01.104-.309c.215-.158.532.023.486.275a.302.302 0 01-.3.238zm0 1.336a.305.305 0 01-.29-.204.28.28 0 01.104-.309c.215-.158.532.023.486.275a.302.302 0 01-.3.238zm1.952-2.675c-.268 0-.404-.321-.21-.495a.32.32 0 01.366-.038c.103.058.16.17.145.281a.301.301 0 01-.3.252zm0 1.34c-.274 0-.408-.335-.198-.504a.322.322 0 01.367-.022.282.282 0 01.125.31.304.304 0 01-.294.216zm0 1.336c-.27 0-.406-.328-.204-.5a.322.322 0 01.354-.037c.11.059.171.18.15.299a.302.302 0 01-.3.238zm1.952-1.336c-.27 0-.407-.328-.204-.5a.322.322 0 01.353-.037c.111.059.171.18.15.299a.302.302 0 01-.3.238zM5.2 8.54c-.272 0-.405-.324-.207-.497.202-.176.534-.017.508.239a.3.3 0 01-.302.258zm1.95.001a.306.306 0 01-.285-.19.28.28 0 01.105-.327c.218-.153.532.034.479.286a.303.303 0 01-.298.231zm3.904.001c-.262 0-.404-.314-.214-.49a.321.321 0 01.364-.047.283.283 0 01.145.32.304.304 0 01-.295.217zm-1.951 0c-.277 0-.408-.338-.197-.506a.322.322 0 01.352-.028c.109.06.166.183.143.3a.302.302 0 01-.298.234z" fill="#81CC96"/><path d="M2.544 12.063v1.485H1.299l.22-.33a.48.48 0 00-.103-.651.638.638 0 01-.253-.505m15.675.001a.638.638 0 01-.253.504.48.48 0 00-.102.651l.219.33h-1.245v-1.486" fill="#EAC36E"/><path d="M13.467 8.716s-8.18.008-11.346.022C1.442 8.74.891 8.222.891 7.58V3.785c-.553.059-.89.19-.89.19V9.82L0 9.824v.688l.891-.073v-.057l12.634-1.035s.05-.266-.058-.63z" fill="#81CC96"/><path d="M1.173 9.348h15.654c.648 0 1.173.496 1.173 1.107v.691c0 .612-.525 1.108-1.173 1.108H1.173C.525 12.254 0 11.758 0 11.147v-.692c0-.611.525-1.107 1.173-1.107z" fill="#8DE0A8"/><path d="M1.296 11.146v-.69c0-.612.525-1.108 1.173-1.108H1.173C.525 9.348 0 9.844 0 10.455v.691c0 .612.525 1.108 1.173 1.108H2.47c-.648 0-1.173-.496-1.173-1.107z" fill="#81CC96"/></g><defs><clipPath id="clip0_1659_12513"><path fill="#fff" transform="translate(0 .152)" d="M0 0h18v17H0z"/></clipPath></defs></svg>