<svg width="18" height="18" fill="none" xmlns="http://www.w3.org/2000/svg"><g clip-path="url(#clip0_1659_12542)"><path d="M2.923 10.02l.434-.22.434.22v2.295l-.434.219-.434-.219V10.02zm-1.736 0l.434-.22.434.22v2.295l-.434.219-.434-.219V10.02z" fill="#207700"/><path d="M3.501 10.594H1.476v.546H3.5v-.546z" fill="#239B02"/><path d="M15.945 10.02l.434-.22.434.22v2.295l-.434.219-.434-.219V10.02zm-1.736 0l.434-.22.434.22v2.295l-.434.219-.434-.219V10.02z" fill="#207700"/><path d="M16.524 10.594h-2.026v.546h2.026v-.546zM.926 11.96c1.244 3.007 4.37 5.194 8.045 5.194s6.8-2.187 8.045-5.193H.926z" fill="#239B02"/><path d="M13.63 6.219H4.37v5.74h9.26v-5.74z" fill="#DDDAC3"/><path d="M4.37 6.219h9.26v5.74" fill="#C9C5AD"/><path d="M8.421 11.685V7.668c0-.192-.087-.356-.29-.356h-2.14c-.203 0-.464.164-.464.356v4.017h2.894z" fill="#FCA12A"/><path d="M8.421 9.772V7.668c0-.192-.087-.356-.29-.356h-2.14c-.203 0-.464.164-.464.356" fill="#E58613"/><path d="M7.756 9.882a.366.366 0 00.376-.355.366.366 0 00-.376-.355.366.366 0 00-.376.355c0 .196.168.355.376.355z" fill="#DB5435"/><path d="M8.016 9.281a.333.333 0 010 .492.382.382 0 01-.52 0" fill="#C43D27"/><path d="M11.025 8.406h1.158v-.738c0-.192-.203-.356-.376-.356h-.782v1.094z" fill="#008AAA"/><path d="M10.447 8.406V7.312h-.81a.348.348 0 00-.348.356v.738h1.158z" fill="#00A1AD"/><path d="M10.447 8.953H9.289v.765c0 .192.145.328.347.328h.81V8.953z" fill="#008AAA"/><path d="M11.025 8.953v1.093h.782c.202 0 .376-.136.376-.328v-.765h-1.158z" fill="#00A1AD"/><path d="M15.135 6.22L8.97 1.657 2.807 6.221h12.328z" fill="#C43D27"/><path d="M15.135 6.22L8.97 1.657 5.816 6.221h9.319z" fill="#AA1E0F"/><path d="M15.743 14.038l-2.17-2.077H4.37l5.44 5.165c2.403-.245 4.515-1.393 5.933-3.088z" fill="#207700"/><path d="M4.66 4.851h8.623l-.376-.273H5.035l-.376.273zm1.852-1.367h4.92l-.377-.273H6.888l-.376.273z" fill="#C43D27"/><path d="M17.074 3.46c-.753.302-1.447-.136-2.026.52-.347.356-.231.875-.058 1.449.608.164 1.129.273 1.534-.055.666-.546.232-1.202.55-1.913z" fill="#82C60A"/><path d="M14.99 5.429c.608.164 1.158.273 1.534-.055.666-.574.232-1.202.55-1.913" fill="#5EA304"/><path d="M16.09 4.386l-.145-.574v.766h.724l-.579-.192zm-.608.602l-.116-.52v.657h.608l-.492-.137z" fill="#74B208"/><path d="M15.8 4.687l-.145-.601v.765h.753l-.608-.164z" fill="#74B208"/><path d="M13.63.152v.055-.055c-.579 1.148-1.794 1.394-1.708 2.76.058.793.81 1.258 1.679 1.723l.029-.055-.03.027c.869-.464 1.65-.929 1.708-1.722.087-1.339-1.1-1.585-1.678-2.733z" fill="#82C60A"/><path d="M13.601 4.607l-.029-.027h.058l-.029.027c.868-.464 1.65-.929 1.708-1.722.086-1.339-1.1-1.585-1.679-2.733v.055" fill="#5EA304"/><path d="M13.573 2.12l-.753-.436.753.71.781-.71-.781.437zm0 1.477l-.753-.437.753.71.781-.71-.781.437z" fill="#74B208"/><path d="M13.573 2.86l-.84-.52.84.82.868-.82-.868.52z" fill="#74B208"/></g><defs><clipPath id="clip0_1659_12542"><path fill="#fff" transform="translate(0 .152)" d="M0 0h18v17H0z"/></clipPath></defs></svg>