<svg width="17" height="18" fill="none" xmlns="http://www.w3.org/2000/svg"><path d="M12.07 9.932v-2.88l.465-.168 1.65 2.268-2.115.78zm-2.068-6.45C10.002 1.934 8.818.68 7.356.68S4.709 1.934 4.709 3.482s1.185 2.802 2.647 2.802c1.462.006 2.646-1.254 2.646-2.802zm1.541 4.8c-.136-.594-.702-.96-1.269-.81l-1.989.516S5.622 6.284 5.576 6.26c-.957-.462-2.108-.066-2.623.924l-1.944 3.744a2.263 2.263 0 00.136 2.304c.011.018 1.723 2.094 1.723 2.094h-1.31c-.645 0-1.155.582-1.099 1.278.051.612.55 1.068 1.128 1.068h3.768c.323 0 .822-.156 1.06-.72.227-.528.034-1.044-.255-1.38l-1.785-2.166 2.08-4.002 1.122.72c.21.132.544.192.793.126.606-.15 2.408-.624 2.408-.624.561-.144.901-.744.765-1.344zm3.672 5.19l-.43-1.38h-2.658l-.43 1.38h3.518zm.227.72H11.47l-.43 1.38h4.838l-.436-1.38zm.657 2.1h-5.292l-.43 1.38h6.159l-.437-1.38z" fill="#0D62B0"/></svg>