<svg width="14" height="19" fill="none" xmlns="http://www.w3.org/2000/svg"><path d="M10.789 3.121h-.339C10.22 4.183 9.284 4.94 8.154 4.94H5.949c-1.13 0-2.066-.756-2.297-1.818h-.379v12.242h7.516V3.121zM7.03 13.485H4v-.91h3.03v.91zm0-2.91H4v-.908h3.03v.909zm0-2.908H4v-.91h3.03v.91zm1.691 6.239l-1.039-.847.575-.705.375.306.861-.938.67.616-1.442 1.568zm0-2.91l-1.039-.846.575-.705.375.306.861-.938.67.616-1.442 1.567zm0-2.909l-1.039-.846.575-.705.375.306.861-.938.67.616-1.442 1.567z" fill="#fff"/><path d="M12.384 3.121h-.626v13.212H2.304V3.121h-.647c-.067 0-.141.054-.141.121v13.819c0 .066.074.12.141.12h10.727c.067 0 .101-.054.101-.12V3.242c0-.067-.034-.12-.1-.12z" fill="#FF8200"/><path d="M12.384 2.152H9.345a2.32 2.32 0 00-2.294-2 2.32 2.32 0 00-2.295 2H1.657c-.602 0-1.111.49-1.111 1.091v13.818c0 .602.51 1.091 1.111 1.091h10.727c.602 0 1.071-.489 1.071-1.09V3.242c0-.601-.47-1.09-1.07-1.09zm-2.954.97c-.207.546-.698.849-1.277.849H5.95c-.579 0-1.07-.304-1.277-.849H9.43zm-6.157 0h.38c.23 1.062 1.165 1.818 2.296 1.818h2.204c1.131 0 2.066-.756 2.297-1.818h.338v12.242H3.273V3.122zm3.778-2c.634 0 1.166.44 1.31 1.03H5.74a1.35 1.35 0 011.31-1.03zm5.434 15.94c0 .066-.034.12-.1.12H1.656c-.067 0-.141-.054-.141-.12V3.242c0-.067.074-.121.141-.121h.646v13.212h9.455V3.122h.626c.067 0 .101.054.101.121v13.818z" fill="#000"/><path d="M5.949 3.97h2.205c.578 0 1.07-.303 1.276-.849H4.672c.207.546.698.849 1.277.849z" fill="#FFBE00"/><path d="M7.03 6.758H4v.909h3.03v-.91zm1.602.086l-.375-.306-.574.705 1.039.846 1.441-1.567-.67-.616-.861.938zM7.03 9.668H4v.91h3.03v-.91zm1.602.082l-.375-.306-.574.705 1.039.847 1.441-1.568-.67-.616-.861.938zM7.03 12.578H4v.91h3.03v-.91zm1.602.082l-.375-.306-.574.705 1.039.847 1.441-1.568-.67-.615-.861.937z" fill="#000"/></svg>