<svg width="15" height="18" fill="none" xmlns="http://www.w3.org/2000/svg"><path d="M9.913 4.21h3.143c.934 0 1.69.758 1.69 1.691v8.259a1.69 1.69 0 01-1.69 1.69H9.913a1.69 1.69 0 01-1.69-1.69V5.9c0-.933.756-1.69 1.69-1.69z" fill="#1C7287"/><path d="M9.38 4.21h2.088v11.64H9.38c-.64 0-1.158-.518-1.158-1.157V5.368c0-.639.519-1.157 1.158-1.157z" fill="#165C6C"/><path d="M14.196 13.19H8.773V6.017h5.423v7.175z" fill="#32A5B9"/><path d="M11.468 6.016H8.773v7.175h2.695V6.016z" fill="#2B8A9A"/><path d="M1.944.152h6.148c.934 0 1.69.757 1.69 1.69v13.62a1.69 1.69 0 01-1.69 1.69H1.944a1.69 1.69 0 01-1.69-1.69V1.842c0-.933.756-1.69 1.69-1.69z" fill="#E45527"/><path d="M1.944.152h3.05v17h-3.05a1.69 1.69 0 01-1.69-1.69V1.842c0-.933.756-1.69 1.69-1.69z" fill="#B7461D"/><path d="M5.742 14.785H4.245a.362.362 0 100 .725h1.497a.362.362 0 000-.725z" fill="#E6E6E6"/><path d="M8.978 13.265H1.057V2.785h7.921v10.48z" fill="#32A5B9"/><path d="M4.993 2.785H1.057v10.48h3.936V2.785z" fill="#2B8A9A"/></svg>