<svg width="14" height="19" fill="none" xmlns="http://www.w3.org/2000/svg"><path d="M2.824.793h.641c.182 0 .323.141.323.323v.645c0 .529.434.964.963.964h.645a.968.968 0 00.963-.964v-.645a.32.32 0 01.323-.323h.645c.182 0 .318.141.318.323v.645c0 .529.44.964.968.964h.637a.968.968 0 00.963-.964v-.645c0-.182.141-.323.322-.323h.646c.181 0 .322.141.322.323v3.218a.315.315 0 01-.322.317H2.824a.315.315 0 01-.323-.317V1.116c0-.182.141-.323.323-.323z" fill="#fff"/><path d="M3.46 5.297h7.08l.312 8.357H3.148l.312-8.357z" fill="#29A3EC"/><path d="M1.86 14.297h10.284c.181 0 .323.141.323.322v2.573a.319.319 0 01-.323.323H1.861a.319.319 0 01-.323-.323V14.62a.32.32 0 01.323-.323z" fill="#EE746C"/><path d="M3.716 5.598h6.57l.288 7.754H3.426l.29-7.754z" fill="#3CDEF6"/><path d="M2.39 14.535h9.225c.162 0 .29.12.29.274v2.184c0 .154-.128.274-.29.274H2.39c-.163 0-.29-.12-.29-.274V14.81c0-.154.128-.274.29-.274z" fill="#FB9761"/><path d="M3.331 1.027h.564a.28.28 0 01.283.284v.567a.85.85 0 00.846.847h.567a.85.85 0 00.846-.847V1.31a.28.28 0 01.284-.284h.567c.159 0 .279.124.279.284v.567c0 .464.386.847.85.847h.56a.85.85 0 00.846-.847V1.31a.28.28 0 01.283-.284h.567a.28.28 0 01.284.284v2.827a.277.277 0 01-.284.279H3.331a.276.276 0 01-.283-.28V1.312a.28.28 0 01.283-.284z" fill="#EBFEFF"/><path d="M2.824.152a.967.967 0 00-.963.963v1.093h.64V1.115c0-.18.141-.322.323-.322h.641c.182 0 .323.141.323.322v.646c0 .529.434.964.963.964h.645a.968.968 0 00.963-.964v-.646a.32.32 0 01.323-.322h.645c.182 0 .318.141.318.322v.646c0 .529.44.964.968.964h.637a.968.968 0 00.963-.964v-.646c0-.18.141-.322.322-.322h.646c.181 0 .323.141.323.322v3.218a.315.315 0 01-.323.318H2.824a.315.315 0 01-.323-.318v-.418h-.64v.418c0 .527.43.959.956.962l-.311 8.359h-.645a.972.972 0 00-.968.963v2.572c0 .53.439.963.968.963h10.283a.968.968 0 00.964-.963v-2.572a.968.968 0 00-.964-.963h-.646l-.31-8.359a.964.964 0 00.956-.962V1.115a.967.967 0 00-.963-.963h-.646a.967.967 0 00-.963.963v.646a.319.319 0 01-.322.322h-.637a.319.319 0 01-.323-.322v-.646a.967.967 0 00-.963-.963h-.645a.967.967 0 00-.963.963v.646a.319.319 0 01-.323.322h-.645a.319.319 0 01-.323-.322v-.646a.967.967 0 00-.963-.963h-.641zM1.86 2.69v.743h.64V2.69h-.64zm1.6 2.606h7.08l.31 8.358H3.149l.312-8.358zm-1.6 8.998h10.283c.181 0 .322.141.322.323v2.572a.319.319 0 01-.322.323H1.86a.319.319 0 01-.323-.323v-2.572c0-.182.141-.323.323-.323z" fill="#5A3392"/></svg>