<svg width="15" height="14" fill="none" xmlns="http://www.w3.org/2000/svg"><path d="M7.775 10.919l3.15 2c.407.256.907-.125.788-.594l-.912-3.587a.543.543 0 01.18-.55l2.826-2.357c.368-.306.181-.925-.3-.956l-3.688-.237a.519.519 0 01-.456-.338L7.988.838a.519.519 0 00-.975 0L5.638 4.3a.519.519 0 01-.456.338l-3.688.237c-.481.031-.669.65-.3.956L4.02 8.188a.544.544 0 01.181.55l-.843 3.325c-.144.562.456 1.018.937.712l2.931-1.856a.512.512 0 01.55 0v0z" stroke="#000" stroke-opacity=".6" stroke-width=".8" stroke-linecap="round" stroke-linejoin="round"/></svg>