<svg width="97" height="38" fill="none" xmlns="http://www.w3.org/2000/svg"><path d="M29.303 22.018a1.425 1.425 0 11.499.5v0l-.493.14a.118.118 0 01-.146-.146l.14-.494zM16.082 32.287a1.425 1.425 0 11.5.5v0l-.494.14a.118.118 0 01-.146-.146l.14-.494zM6.254 20.458H3.638a.119.119 0 00-.118.12v1.901c0 .066.053.12.118.12h2.616a.119.119 0 00.119-.12v-1.902a.119.119 0 00-.12-.119z" stroke="#4F0DA3" stroke-width=".285" stroke-linecap="round" stroke-linejoin="round"/><path d="M5.54 22.598V20.22a.238.238 0 00-.237-.237h-.714a.238.238 0 00-.237.237v2.378m27.486-7.561h-2.616a.119.119 0 00-.119.119v1.902c0 .066.054.12.12.12h2.615a.119.119 0 00.119-.12v-1.902a.119.119 0 00-.12-.119z" stroke="#4F0DA3" stroke-width=".285" stroke-linecap="round" stroke-linejoin="round"/><path d="M31.124 17.177v-2.378a.238.238 0 00-.237-.237h-.714a.238.238 0 00-.237.237v2.378M24.788 5.241h-2.402a.12.12 0 00-.119.105l-.21 1.903a.12.12 0 00.117.132H25a.119.119 0 00.118-.132l-.211-1.903a.12.12 0 00-.12-.105v0z" stroke="#4F0DA3" stroke-width=".285" stroke-linecap="round" stroke-linejoin="round"/><path d="M22.992 5.716v-.475a.594.594 0 111.189 0v.475" stroke="#4F0DA3" stroke-width=".285" stroke-linecap="round" stroke-linejoin="round"/><path d="M30.044 25.512a.424.424 0 00-.319-.143h-.789v-.18a.663.663 0 00-.667-.665.182.182 0 00-.163.1l-.556 1.107h-.616a.304.304 0 00-.303.302v1.328a.301.301 0 00.303.302h2.61a.427.427 0 00.42-.37l.183-1.449a.419.419 0 00-.103-.332zm-3.05.581h.486v1.208h-.485v-1.207zm2.792-.294l-.182 1.449a.06.06 0 01-.06.053h-1.7v-1.346l.528-1.05a.303.303 0 01.2.283v.362a.18.18 0 00.182.181h.971a.062.062 0 01.046.02c.006.007.01.015.013.023a.06.06 0 01.002.025z" fill="#4F0DA3"/><path d="M16.31 4.819v1.016a.119.119 0 00.12.119h2.14a.119.119 0 00.118-.119V4.82M16.4 3.339h2.2a.12.12 0 01.114.086l.213.746h-2.854l.213-.746a.12.12 0 01.114-.086v0z" stroke="#4F0DA3" stroke-width=".285" stroke-linecap="round" stroke-linejoin="round"/><path d="M17.024 4.17v.238a.476.476 0 11-.95 0v-.237" stroke="#4F0DA3" stroke-width=".285" stroke-linecap="round" stroke-linejoin="round"/><path d="M17.976 4.17v.238a.476.476 0 11-.952 0v-.237" stroke="#4F0DA3" stroke-width=".285" stroke-linecap="round" stroke-linejoin="round"/><path d="M18.927 4.17v.238a.476.476 0 11-.951 0v-.237m5.42 25.989a.476.476 0 100-.952.476.476 0 000 .951z" stroke="#4F0DA3" stroke-width=".285" stroke-linecap="round" stroke-linejoin="round"/><path d="M24.585 29.684c0 1.07-1.19 1.902-1.19 1.902s-1.188-.832-1.188-1.902a1.189 1.189 0 012.378 0v0zM3.525 14.696l.871 2.516c.037.108.192.105.226-.005l.35-1.138a.111.111 0 01.08-.077l1.136-.351c.11-.034.113-.189.005-.226l-2.516-.87a.119.119 0 00-.152.15v0zm8.411 13.752H9.558a.119.119 0 00-.119.118v2.378a.12.12 0 00.12.119h2.377a.119.119 0 00.119-.119v-2.378a.119.119 0 00-.119-.118z" stroke="#4F0DA3" stroke-width=".285" stroke-linecap="round" stroke-linejoin="round"/><path d="M12.055 30.23l-.629-.628a.118.118 0 00-.13-.026.12.12 0 00-.04.026l-.662.663a.117.117 0 01-.085.035.12.12 0 01-.084-.035l-.306-.306a.12.12 0 00-.17 0l-.51.51" stroke="#4F0DA3" stroke-width=".285" stroke-linecap="round" stroke-linejoin="round"/><path d="M8.74 9.629a.425.425 0 00-.32-.143h-.788v-.181a.663.663 0 00-.668-.664.183.183 0 00-.162.1l-.557 1.107H5.63a.304.304 0 00-.304.302v1.328a.301.301 0 00.304.302h2.609a.427.427 0 00.42-.37l.183-1.45a.42.42 0 00-.103-.331zm-3.05.581h.486v1.207H5.69V10.21zm2.791-.294L8.3 11.364a.06.06 0 01-.06.053h-1.7v-1.345l.529-1.05a.303.303 0 01.2.283v.362a.18.18 0 00.182.181h.97a.06.06 0 01.061.068z" fill="#4F0DA3"/><path d="M28.058 12.065a1.427 1.427 0 100-2.853 1.427 1.427 0 000 2.853zm.356-1.724h.357m-.095.654a.716.716 0 01-1.236 0" stroke="#4F0DA3" stroke-width=".285" stroke-linecap="round" stroke-linejoin="round"/><circle cx="17.5" cy="18.152" r="9.701" fill="#4F0DA3"/><path d="M12.642 19.195v.58h-2.265v-.491l1.044-1.097c.092-.106.166-.2.223-.283.056-.085.097-.161.122-.23a.513.513 0 00.04-.185.569.569 0 00-.042-.234.3.3 0 00-.12-.145.358.358 0 00-.194-.049.323.323 0 00-.203.067.441.441 0 00-.136.183.69.69 0 00-.047.26h-.754a1.06 1.06 0 01.553-.94c.174-.1.376-.15.604-.15.24 0 .44.038.602.112a.787.787 0 01.366.323.97.97 0 01.125.506.998.998 0 01-.054.326 1.405 1.405 0 01-.154.31 2.67 2.67 0 01-.245.312c-.095.107-.203.22-.325.34l-.42.485h1.28zm3.085-1.155v1.333c-.055.06-.14.126-.254.196a1.757 1.757 0 01-.428.176 2.239 2.239 0 01-.608.074c-.216 0-.411-.034-.587-.103a1.25 1.25 0 01-.452-.305 1.406 1.406 0 01-.29-.495c-.067-.196-.1-.42-.1-.673v-.18c0-.253.034-.478.102-.674.069-.196.165-.361.288-.495a1.23 1.23 0 01.439-.307c.17-.07.355-.105.557-.105.299 0 .542.047.73.142a1 1 0 01.425.39c.097.166.155.356.176.573h-.751a.771.771 0 00-.085-.271.396.396 0 00-.174-.172.628.628 0 00-.294-.06c-.094 0-.18.02-.256.06a.527.527 0 00-.194.183.95.95 0 00-.125.303 1.908 1.908 0 00-.043.428v.185c0 .162.014.304.04.426.029.121.07.223.126.305a.55.55 0 00.213.183c.088.04.191.06.31.06a.986.986 0 00.214-.02.637.637 0 00.147-.054.477.477 0 00.092-.062v-.504H14.4v-.537h1.326zm2.69 1.132v.602h-1.729v-.602h1.73zm-1.45-2.643v3.245h-.783V16.53h.783zm1.228 1.288v.582h-1.507v-.582h1.507zm.23-1.288v.604h-1.737v-.604h1.736zm1.368 3.245h-.72l.005-.602h.715a.644.644 0 00.377-.107.653.653 0 00.236-.318 1.47 1.47 0 00.083-.526v-.141c0-.156-.016-.293-.047-.41a.815.815 0 00-.134-.297.56.56 0 00-.223-.18.72.72 0 00-.303-.06h-.722v-.604h.722c.22 0 .421.038.604.113a1.422 1.422 0 01.79.814c.074.189.11.398.11.628v.137c0 .228-.037.438-.11.628a1.397 1.397 0 01-.785.814 1.56 1.56 0 01-.598.111zm-.272-3.245v3.245h-.782V16.53h.782zm3.5.682l-.791 2.563h-.84l1.192-3.245h.532l-.093.682zm.655 2.563l-.793-2.563-.103-.682h.54l1.199 3.245h-.843zm-.031-1.21v.604H21.98v-.604h1.665z" fill="#fff"/><circle cx="17.5" cy="18.152" r="17.12" stroke="#4F0DA3" stroke-width=".761"/><path d="M7.123 24.81a.859.859 0 00-.656.287.859.859 0 00-.656-.287.86.86 0 00-.612.257.887.887 0 00-.254.621c0 .964 1.388 1.733 1.447 1.765a.156.156 0 00.15 0c.059-.032 1.447-.801 1.447-1.765a.887.887 0 00-.254-.62.86.86 0 00-.612-.258zm-.072 1.895a4.316 4.316 0 01-.584.424 4.316 4.316 0 01-.584-.424c-.284-.247-.623-.625-.623-1.017 0-.148.058-.29.162-.395a.547.547 0 01.39-.164c.233 0 .428.125.51.327a.16.16 0 00.145.1.156.156 0 00.146-.1.533.533 0 01.51-.327c.146 0 .286.059.39.164a.564.564 0 01.16.395c0 .392-.338.77-.622 1.017z" fill="#4F0DA3"/><g clip-path="url(#clip0_1085_10267)"><path d="M12.353 4.742a.859.859 0 00-.655.287.859.859 0 00-.656-.287.86.86 0 00-.612.257.887.887 0 00-.254.621c0 .964 1.388 1.733 1.447 1.766a.155.155 0 00.15 0c.058-.033 1.446-.802 1.446-1.766a.887.887 0 00-.254-.62.86.86 0 00-.612-.258zm-.072 1.895a4.312 4.312 0 01-.584.424 4.312 4.312 0 01-.583-.424c-.285-.247-.623-.625-.623-1.017 0-.148.058-.29.161-.395a.547.547 0 01.39-.164c.233 0 .429.125.51.327a.16.16 0 00.146.1.156.156 0 00.145-.1.533.533 0 01.51-.327.55.55 0 01.39.164.563.563 0 01.161.395c0 .392-.338.77-.623 1.017z" fill="#4F0DA3"/></g><path d="M43.163 26.326v-1.713l4.545-4.455a21.36 21.36 0 001.087-1.17c.29-.341.507-.671.652-.99a2.45 2.45 0 00.217-1.024c0-.413-.094-.767-.281-1.06a1.87 1.87 0 00-.774-.691 2.495 2.495 0 00-1.118-.243c-.43 0-.808.09-1.132.268a1.847 1.847 0 00-.754.748c-.175.324-.262.71-.262 1.157h-2.256c0-.83.19-1.553.569-2.167a3.84 3.84 0 011.566-1.425c.669-.337 1.436-.505 2.3-.505.879 0 1.65.164 2.315.492.664.328 1.18.778 1.546 1.349.371.571.557 1.223.557 1.956 0 .49-.094.971-.282 1.444-.187.473-.517.998-.99 1.573-.47.575-1.127 1.272-1.975 2.09l-2.257 2.295v.09h5.702v1.98h-8.975zm15.476 3.886c-.832 0-1.545-.113-2.142-.338-.596-.222-1.076-.52-1.438-.895a3.098 3.098 0 01-.754-1.247l2.084-.505c.093.192.23.382.409.57.179.19.42.348.722.472.307.128.692.192 1.157.192.656 0 1.2-.16 1.63-.48.43-.315.645-.835.645-1.56v-1.86h-.115c-.119.24-.294.484-.524.736a2.68 2.68 0 01-.901.633c-.37.17-.837.255-1.4.255a4.035 4.035 0 01-2.052-.53c-.61-.358-1.095-.89-1.457-1.598-.358-.712-.537-1.602-.537-2.672 0-1.078.179-1.988.537-2.73.362-.745.85-1.31 1.464-1.693a3.762 3.762 0 012.052-.582c.575 0 1.048.098 1.419.294.374.192.673.424.894.697.222.268.39.522.505.76h.128v-1.623h2.282v9.978c0 .84-.2 1.534-.6 2.084-.401.55-.949.96-1.643 1.233-.695.273-1.483.41-2.365.41zm.019-5.842c.49 0 .907-.12 1.252-.358.346-.239.608-.582.787-1.03.179-.447.268-.983.268-1.61 0-.618-.09-1.159-.268-1.623-.175-.465-.435-.825-.78-1.08-.341-.26-.76-.39-1.26-.39-.515 0-.945.134-1.29.402-.346.268-.606.637-.78 1.106-.175.464-.262.993-.262 1.585 0 .6.087 1.127.262 1.579.179.447.44.797.786 1.048.35.247.778.371 1.285.371zm11.307 2.148c-.984 0-1.834-.205-2.55-.614a4.156 4.156 0 01-1.643-1.751c-.384-.759-.575-1.652-.575-2.679 0-1.01.191-1.896.575-2.659a4.35 4.35 0 011.624-1.79c.694-.43 1.51-.645 2.448-.645.605 0 1.176.098 1.713.294a3.88 3.88 0 011.432.895c.417.405.745.92.984 1.547.239.622.358 1.363.358 2.224v.71h-8.048v-1.56h5.83a2.488 2.488 0 00-.288-1.182 2.091 2.091 0 00-.786-.825c-.332-.2-.72-.3-1.163-.3-.473 0-.889.114-1.247.345a2.379 2.379 0 00-.837.895 2.57 2.57 0 00-.3 1.208v1.361c0 .571.104 1.061.313 1.47.208.405.5.716.875.933.375.214.814.32 1.317.32.337 0 .641-.047.914-.14a2.02 2.02 0 00.71-.429c.2-.187.351-.42.454-.697l2.16.243a3.368 3.368 0 01-.78 1.496c-.379.422-.865.75-1.457.985-.593.23-1.27.345-2.033.345zm9.967-.02c-.771 0-1.462-.198-2.071-.594-.61-.396-1.09-.971-1.445-1.726-.353-.754-.53-1.67-.53-2.748 0-1.091.179-2.012.537-2.762.362-.754.85-1.323 1.463-1.706a3.762 3.762 0 012.052-.582c.576 0 1.049.098 1.42.294.37.192.664.424.882.697.217.268.385.522.505.76h.095v-4.896h2.32v13.09h-2.275V24.78h-.14c-.12.239-.292.492-.518.76-.226.265-.524.49-.895.678-.37.188-.837.282-1.4.282zm.646-1.898c.49 0 .907-.132 1.252-.396.346-.269.608-.642.787-1.119.179-.477.268-1.033.268-1.668s-.09-1.187-.268-1.656c-.175-.468-.435-.833-.78-1.093-.341-.26-.76-.39-1.26-.39-.515 0-.945.135-1.29.403-.346.268-.606.64-.78 1.112-.175.473-.263 1.015-.263 1.624 0 .613.088 1.161.263 1.643.178.477.44.854.786 1.131.35.273.777.41 1.285.41zm9.874 1.924c-.623 0-1.183-.11-1.681-.332a2.743 2.743 0 01-1.177-.997c-.285-.44-.428-.98-.428-1.624 0-.554.103-1.012.307-1.374.205-.363.484-.652.837-.87a4.224 4.224 0 011.196-.492c.447-.115.91-.198 1.387-.25a51.97 51.97 0 001.4-.159c.358-.051.617-.128.78-.23.166-.107.249-.27.249-.492v-.039c0-.481-.143-.854-.428-1.118-.286-.264-.697-.396-1.234-.396-.567 0-1.016.123-1.349.37-.328.247-.55.54-.665.876l-2.16-.307c.17-.596.451-1.095.843-1.496a3.671 3.671 0 011.439-.907 5.502 5.502 0 011.879-.307c.473 0 .944.055 1.413.166.468.11.897.294 1.284.55.388.251.7.594.934 1.029.238.435.358.978.358 1.63v6.57H93.41v-1.348h-.076c-.141.273-.34.529-.595.767a2.86 2.86 0 01-.952.57c-.38.14-.825.21-1.336.21zm.6-1.7c.465 0 .868-.092 1.209-.275.34-.188.603-.435.786-.741a1.89 1.89 0 00.281-1.004v-1.157c-.072.06-.196.115-.37.166a5.248 5.248 0 01-.576.134c-.213.039-.424.073-.633.103l-.543.076a4.033 4.033 0 00-.927.23 1.54 1.54 0 00-.645.448c-.158.187-.237.43-.237.729 0 .426.156.747.467.965.31.217.707.326 1.189.326z" fill="#4F0DA3"/><defs><clipPath id="clip0_1085_10267"><path fill="#fff" transform="translate(10.081 4.456)" d="M0 0h3.234v3.234H0z"/></clipPath></defs></svg>