<svg width="46" height="40" fill="none" xmlns="http://www.w3.org/2000/svg"><path d="M33.988 24.42a1.629 1.629 0 11.571.57v0l-.564.16a.136.136 0 01-.132-.034.135.135 0 01-.034-.133l.16-.564zM18.88 36.156a1.629 1.629 0 11.57.57v0l-.563.16a.134.134 0 01-.167-.167l.16-.563zM7.646 22.636H4.657a.136.136 0 00-.136.136v2.174c0 .075.061.135.136.135h2.99c.075 0 .135-.06.135-.136v-2.173a.136.136 0 00-.136-.136z" stroke="#4F0DA3" stroke-width=".326" stroke-linecap="round" stroke-linejoin="round"/><path d="M6.831 25.082v-2.718a.271.271 0 00-.271-.271h-.816a.272.272 0 00-.271.271v2.718m31.413-8.642h-2.99a.136.136 0 00-.135.136v2.174c0 .075.06.136.136.136h2.989c.075 0 .136-.06.136-.136v-2.174a.136.136 0 00-.136-.136z" stroke="#4F0DA3" stroke-width=".326" stroke-linecap="round" stroke-linejoin="round"/><path d="M36.07 18.887v-2.718a.271.271 0 00-.271-.271h-.815a.272.272 0 00-.272.271v2.718M28.829 5.244h-2.745a.137.137 0 00-.135.12l-.242 2.175a.136.136 0 00.135.15h3.23a.135.135 0 00.134-.15l-.241-2.174a.137.137 0 00-.136-.12v0z" stroke="#4F0DA3" stroke-width=".326" stroke-linecap="round" stroke-linejoin="round"/><path d="M26.777 5.788v-.543a.68.68 0 011.359 0v.543" stroke="#4F0DA3" stroke-width=".326" stroke-linecap="round" stroke-linejoin="round"/><path d="M34.835 28.411a.486.486 0 00-.364-.163h-.901v-.207a.758.758 0 00-.763-.759.209.209 0 00-.186.115l-.636 1.265h-.704a.348.348 0 00-.346.345v1.517a.344.344 0 00.346.345h2.982a.487.487 0 00.482-.423l.208-1.655a.48.48 0 00-.118-.38zm-3.484.665h.554v1.38h-.554v-1.38zm3.19-.337l-.209 1.656a.07.07 0 01-.07.06h-1.94v-1.537l.603-1.201a.347.347 0 01.229.324v.414a.206.206 0 00.207.207h1.11a.07.07 0 01.067.048c.003.01.004.02.002.03z" fill="#4F0DA3"/><path d="M19.142 4.763v1.161a.136.136 0 00.136.136h2.445a.136.136 0 00.136-.136V4.763m-2.616-1.692h2.514a.138.138 0 01.13.099l.244.852H18.87l.242-.852a.138.138 0 01.131-.099v0z" stroke="#4F0DA3" stroke-width=".326" stroke-linecap="round" stroke-linejoin="round"/><path d="M19.957 4.022v.272a.544.544 0 01-1.087 0v-.272" stroke="#4F0DA3" stroke-width=".326" stroke-linecap="round" stroke-linejoin="round"/><path d="M21.044 4.022v.272a.544.544 0 01-1.088 0v-.272" stroke="#4F0DA3" stroke-width=".326" stroke-linecap="round" stroke-linejoin="round"/><path d="M22.13 4.022v.272a.543.543 0 11-1.086 0v-.272m6.196 29.701a.544.544 0 100-1.087.544.544 0 000 1.087z" stroke="#4F0DA3" stroke-width=".326" stroke-linecap="round" stroke-linejoin="round"/><path d="M28.598 33.179c0 1.223-1.358 2.174-1.358 2.174s-1.36-.951-1.36-2.174a1.359 1.359 0 112.718 0v0zM4.53 16.05l.995 2.875c.042.124.219.121.258-.005l.4-1.3a.127.127 0 01.09-.089l1.3-.4c.126-.04.13-.216.005-.259l-2.875-.995a.136.136 0 00-.173.173v0zm9.611 15.717h-2.717a.136.136 0 00-.136.136v2.717c0 .075.06.136.136.136h2.717a.136.136 0 00.136-.136v-2.717a.136.136 0 00-.136-.136z" stroke="#4F0DA3" stroke-width=".326" stroke-linecap="round" stroke-linejoin="round"/><path d="M14.277 33.804l-.718-.718a.134.134 0 00-.097-.041.135.135 0 00-.097.04l-.757.758a.134.134 0 01-.097.04.136.136 0 01-.097-.04l-.35-.35a.134.134 0 00-.097-.04.135.135 0 00-.096.04l-.583.583" stroke="#4F0DA3" stroke-width=".326" stroke-linecap="round" stroke-linejoin="round"/><path d="M10.487 10.26a.484.484 0 00-.364-.163h-.901V9.89a.758.758 0 00-.763-.76.209.209 0 00-.186.115l-.636 1.266h-.703a.348.348 0 00-.347.344v1.518a.344.344 0 00.347.345h2.981a.487.487 0 00.482-.423l.208-1.656a.481.481 0 00-.118-.38zm-3.484.664h.555v1.38h-.555v-1.38zm3.19-.336l-.208 1.656a.07.07 0 01-.07.06H7.974v-1.538l.603-1.2a.347.347 0 01.229.324v.413a.206.206 0 00.208.207h1.11a.069.069 0 01.069.078z" fill="#4F0DA3"/><path d="M32.565 13.044a1.63 1.63 0 100-3.26 1.63 1.63 0 000 3.26zm.408-1.971h.407m-.109.747a.816.816 0 01-1.413 0" stroke="#4F0DA3" stroke-width=".326" stroke-linecap="round" stroke-linejoin="round"/><circle cx="20.5" cy="20" r="11.087" fill="#4F0DA3"/><path d="M14.948 21.62v.662H12.36v-.56l1.192-1.254c.105-.12.19-.228.255-.323.064-.097.11-.184.14-.263a.589.589 0 00.046-.211.649.649 0 00-.049-.267.342.342 0 00-.137-.166.409.409 0 00-.222-.056.369.369 0 00-.232.076.505.505 0 00-.155.21.789.789 0 00-.054.297h-.86a1.213 1.213 0 01.631-1.075c.199-.114.429-.17.69-.17.274 0 .503.042.688.127a.9.9 0 01.418.37c.095.159.143.352.143.578 0 .129-.02.253-.061.372-.041.118-.1.236-.176.354-.077.115-.17.234-.28.356a8.348 8.348 0 01-.372.39l-.48.553h1.463zm3.526-1.32v1.524c-.063.07-.16.144-.29.224a2.04 2.04 0 01-.49.201 2.554 2.554 0 01-.695.084c-.246 0-.47-.039-.67-.117a1.43 1.43 0 01-.517-.349 1.606 1.606 0 01-.332-.566 2.38 2.38 0 01-.114-.769v-.206c0-.289.039-.546.117-.77.078-.224.188-.412.329-.565.142-.155.31-.272.502-.352.193-.08.405-.12.636-.12.342 0 .62.055.833.164.214.107.377.255.487.445.11.189.178.407.201.655h-.858a.88.88 0 00-.097-.31.453.453 0 00-.199-.197.718.718 0 00-.336-.069.627.627 0 00-.293.07.604.604 0 00-.222.208 1.087 1.087 0 00-.142.346 2.19 2.19 0 00-.049.49v.211c0 .185.016.347.046.487.032.139.08.255.143.349a.63.63 0 00.244.209.86.86 0 00.354.068c.095 0 .177-.007.245-.023a.737.737 0 00.168-.06.547.547 0 00.105-.072v-.576h-.622V20.3h1.516zm3.075 1.294v.688h-1.977v-.688h1.977zm-1.659-3.021v3.71h-.894v-3.71h.894zm1.404 1.473v.664h-1.722v-.665h1.722zm.262-1.473v.69h-1.984v-.69h1.984zm1.564 3.71h-.822l.005-.689h.817c.17 0 .314-.04.431-.122a.746.746 0 00.27-.364 1.68 1.68 0 00.094-.601v-.16c0-.18-.017-.335-.053-.47a.932.932 0 00-.153-.338.638.638 0 00-.255-.207.824.824 0 00-.346-.069h-.826v-.69h.826c.251 0 .481.043.69.13a1.624 1.624 0 01.902.93c.085.216.127.455.127.718v.156c0 .261-.042.5-.127.718a1.598 1.598 0 01-.897.93 1.782 1.782 0 01-.683.127zm-.31-3.71v3.71h-.894v-3.71h.894zm4 .78l-.905 2.93h-.96l1.363-3.71h.608l-.107.78zm.748 2.93l-.907-2.93-.117-.78h.617l1.37 3.71h-.963zm-.035-1.384v.69H25.62v-.69h1.903z" fill="#fff"/><circle cx="20.5" cy="20" r="19.565" stroke="#4F0DA3" stroke-width=".87"/><path d="M8.641 27.608a.981.981 0 00-.75.328.981.981 0 00-.75-.328.983.983 0 00-.698.295 1.01 1.01 0 00-.29.71c0 1.1 1.586 1.98 1.653 2.017a.177.177 0 00.17 0c.068-.037 1.655-.916 1.655-2.017 0-.267-.105-.522-.29-.71a.983.983 0 00-.7-.295zm-.082 2.167a4.96 4.96 0 01-.668.484 4.933 4.933 0 01-.667-.484c-.325-.283-.712-.715-.712-1.162 0-.17.067-.332.185-.452a.625.625 0 01.445-.187c.267 0 .49.143.583.373a.182.182 0 00.166.114.178.178 0 00.167-.114.609.609 0 01.583-.373c.167 0 .327.067.445.187s.185.282.185.452c0 .447-.387.879-.712 1.162z" fill="#4F0DA3"/><g clip-path="url(#clip0_237_17051)"><path d="M14.62 4.674a.981.981 0 00-.75.328.981.981 0 00-.75-.328.983.983 0 00-.699.294c-.185.189-.29.444-.29.71 0 1.101 1.586 1.98 1.654 2.017a.178.178 0 00.17 0c.068-.037 1.654-.916 1.654-2.017 0-.266-.105-.521-.29-.71a.983.983 0 00-.7-.294zm-.083 2.166a4.93 4.93 0 01-.667.484 4.93 4.93 0 01-.667-.484c-.325-.283-.712-.714-.712-1.162 0-.17.066-.332.184-.452a.625.625 0 01.445-.187c.267 0 .49.143.583.373a.182.182 0 00.167.114.178.178 0 00.167-.114.609.609 0 01.583-.373c.167 0 .327.067.445.187s.184.283.184.452c0 .448-.387.88-.712 1.162z" fill="#4F0DA3"/></g><defs><clipPath id="clip0_237_17051"><path fill="#fff" transform="translate(12.022 4.348)" d="M0 0h3.696v3.696H0z"/></clipPath></defs></svg>