<?xml version="1.0" encoding="UTF-8"?>
<!-- Generator: visioncortex VTracer 0.6.3 -->
<svg version="1.1" xmlns="http://www.w3.org/2000/svg" width="500" height="500">
<path d="M0 0 C3.74 3.48 6.33 6.86 8.81 11.31 C9.31 12.2 9.31 12.2 9.82 13.11 C13.79 20.28 17.4 27.64 21 35 C21.64 34.47 22.29 33.93 22.95 33.38 C28.24 29.02 33.57 24.74 39 20.56 C39.55 20.14 40.1 19.71 40.67 19.28 C43.07 17.44 45.48 15.68 48 14 C50.19 14.38 50.19 14.38 52 15 C54.72 27.63 56.82 40.13 58 53 C58.88 52.73 59.75 52.45 60.66 52.17 C63.93 51.16 67.21 50.16 70.49 49.15 C71.9 48.72 73.32 48.28 74.73 47.85 C76.77 47.21 78.81 46.59 80.85 45.97 C82.08 45.59 83.3 45.21 84.56 44.83 C87.86 44.03 90.63 43.84 94 44 C94.91 47.66 94.99 50.43 94.33 54.13 C94.16 55.1 93.99 56.08 93.81 57.08 C93.63 58.08 93.44 59.09 93.25 60.12 C93.08 61.11 92.91 62.09 92.73 63.1 C91.53 69.85 89.91 76.42 88 83 C88.8 82.98 89.61 82.96 90.43 82.94 C102.34 82.68 114.28 83.91 126 86 C127 89 127 89 125.45 92.34 C124.68 93.69 123.91 95.04 123.12 96.38 C122.72 97.08 122.32 97.79 121.9 98.52 C118.49 104.38 114.72 109.93 110.75 115.43 C108.87 117.94 108.87 117.94 108 121 C109.15 121.19 110.31 121.37 111.5 121.56 C121.17 123.71 134.33 128.68 142 135 C142.72 137.14 142.72 137.14 143 139 C120.16 159 120.16 159 115 159 C116.37 162.16 117.86 163.99 120.5 166.19 C121.57 167.09 121.57 167.09 122.66 168.02 C123.43 168.67 124.2 169.33 125 170 C128.37 172.96 131.7 175.97 135 179 C135.8 179.73 136.59 180.46 137.41 181.21 C138.51 182.25 138.51 182.25 139.62 183.31 C140.28 183.93 140.93 184.54 141.6 185.18 C143 187 143 187 143 191 C113.85 200 113.85 200 107 200 C107.7 201.11 108.4 202.23 109.12 203.38 C113.93 211.08 118.61 218.81 122.69 226.94 C123.2 227.94 123.2 227.94 123.71 228.96 C125.13 231.83 126 233.75 126 237 C118 239.67 108.67 237.76 100.5 236.56 C99.53 236.43 98.55 236.29 97.55 236.15 C90.45 235.15 90.45 235.15 87 234 C87.27 235.08 87.53 236.15 87.8 237.26 C90.77 249.44 93.51 261.38 93 274 C92.34 274.33 91.68 274.66 91 275 C88.43 274.13 85.99 273.18 83.5 272.12 C82.76 271.81 82.01 271.5 81.25 271.19 C72.64 267.52 64.31 263.29 56 259 C55.99 259.74 55.97 260.49 55.96 261.25 C55.44 273.13 52.71 284.46 50 296 C48.2 296.66 48.2 296.66 46 297 C44.36 296.02 44.36 296.02 42.75 294.46 C42.15 293.88 41.54 293.31 40.92 292.72 C40.29 292.09 39.65 291.46 39 290.81 C38.34 290.18 37.69 289.55 37.01 288.9 C34.99 286.95 32.99 284.98 31 283 C30.38 282.39 29.77 281.78 29.13 281.15 C25.73 277.79 22.35 274.41 19 271 C15.79 273.7 14.22 277.2 12.38 280.88 C8.5 288.38 3.97 295.18 -1 302 C-3.35 301.62 -4.65 301.39 -6.26 299.58 C-6.61 298.97 -6.97 298.37 -7.33 297.75 C-7.74 297.06 -8.14 296.38 -8.55 295.68 C-8.97 294.94 -9.38 294.2 -9.81 293.44 C-10.25 292.68 -10.68 291.93 -11.13 291.16 C-15.34 283.69 -18.77 275.94 -22 268 C-24.98 269.37 -27.33 270.96 -29.83 273.08 C-30.55 273.68 -31.26 274.29 -32 274.91 C-33.49 276.17 -34.97 277.42 -36.45 278.68 C-46.65 287.23 -46.65 287.23 -51 289 C-53.23 288.62 -53.23 288.62 -55 288 C-57.8 275.43 -59.45 262.77 -61 250 C-69.1 251.66 -76.87 254.07 -84.74 256.61 C-93.86 259.47 -93.86 259.47 -99 259 C-98.47 250.09 -96.81 241.53 -94.94 232.81 C-94.65 231.47 -94.37 230.12 -94.08 228.77 C-93.39 225.51 -92.7 222.26 -92 219 C-92.65 219.01 -93.31 219.02 -93.98 219.03 C-125.07 219.46 -125.07 219.46 -132 216 C-128.82 205.39 -122.3 195.98 -115.57 187.3 C-114.08 185.12 -113.42 183.58 -113 181 C-114.13 180.65 -115.27 180.3 -116.44 179.94 C-127.49 176.22 -138.72 172.22 -148 165 C-147.08 159.52 -143.24 157.22 -139 154 C-133.18 149.89 -127.25 145.84 -121.04 142.33 C-120.37 141.89 -119.69 141.45 -119 141 C-119 140.34 -119 139.68 -119 139 C-120.45 137.71 -121.96 136.5 -123.5 135.31 C-128.72 131.14 -133.67 126.74 -138.56 122.19 C-139.27 121.54 -139.97 120.9 -140.69 120.23 C-141.35 119.61 -142.01 118.99 -142.69 118.36 C-143.58 117.53 -143.58 117.53 -144.48 116.69 C-146.09 114.9 -147.03 113.19 -148 111 C-143.21 107.58 -137.92 106.41 -132.31 104.94 C-131.37 104.68 -130.43 104.43 -129.46 104.16 C-123.34 102.53 -117.22 101.16 -111 100 C-112.3 96.55 -113.81 93.42 -115.68 90.23 C-116.2 89.34 -116.71 88.45 -117.25 87.54 C-118.32 85.69 -119.4 83.85 -120.48 82.01 C-127.57 69.78 -127.57 69.78 -129 65 C-128.67 64.01 -128.34 63.02 -128 62 C-98.32 63.23 -98.32 63.23 -90 66 C-90.19 64.93 -90.37 63.86 -90.57 62.76 C-91.26 58.79 -91.94 54.81 -92.62 50.84 C-92.91 49.12 -93.21 47.4 -93.51 45.68 C-93.94 43.21 -94.37 40.74 -94.79 38.27 C-94.99 37.12 -94.99 37.12 -95.2 35.94 C-95.81 32.29 -96.06 29.54 -95 26 C-90.14 26.59 -86 28.07 -81.56 30.06 C-80.95 30.32 -80.34 30.59 -79.71 30.86 C-72.27 34.15 -65.16 38.13 -58 42 C-57.82 40.92 -57.65 39.84 -57.47 38.73 C-56.81 34.73 -56.15 30.73 -55.49 26.73 C-55.21 25 -54.92 23.26 -54.64 21.53 C-54.23 19.04 -53.82 16.56 -53.41 14.07 C-53.22 12.9 -53.22 12.9 -53.03 11.72 C-52.11 6.23 -52.11 6.23 -51 4 C-46.56 5.42 -43.62 7.84 -40.31 11 C-39.8 11.48 -39.28 11.97 -38.74 12.47 C-25.45 24.99 -25.45 24.99 -22.35 29.29 C-21.9 29.85 -21.46 30.42 -21 31 C-20.34 31 -19.68 31 -19 31 C-18.7 30.41 -18.41 29.82 -18.1 29.22 C-16.72 26.49 -15.33 23.78 -13.94 21.06 C-13.24 19.67 -13.24 19.67 -12.53 18.26 C-9.12 11.65 -5.29 5.29 0 0 Z " fill="#8015C4" transform="translate(259,92)"/>
<path d="M0 0 C2.94 1.25 3.69 3.06 5.06 5.88 C5.06 6.53 5.06 7.19 5.06 7.88 C5.72 7.88 6.38 7.88 7.06 7.88 C11.05 13.44 14.1 19.72 17.06 25.88 C17.72 25.88 18.38 25.88 19.06 25.88 C20.89 23.82 22.01 22.01 23 19.44 C24.25 16.41 25.86 14.28 28.06 11.88 C28.72 11.88 29.38 11.88 30.06 11.88 C30.43 11.04 30.43 11.04 30.81 10.19 C32.3 7.43 33.95 5.18 36.06 2.88 C37.05 2.88 38.04 2.88 39.06 2.88 C39.06 3.53 39.06 4.19 39.06 4.88 C39.72 4.88 40.38 4.88 41.06 4.88 C41.26 5.74 41.45 6.61 41.65 7.51 C41.91 8.66 42.17 9.81 42.44 11 C42.69 12.14 42.95 13.27 43.21 14.45 C44 17.84 44 17.84 45.12 20.94 C46.08 23.94 46.46 26.61 46.69 29.75 C46.8 31.2 46.8 31.2 46.91 32.68 C46.96 33.4 47.01 34.13 47.06 34.88 C51.41 32.53 54.62 30.43 58.06 26.88 C62.44 23.53 68.52 21.88 74.06 21.88 C74.51 39.08 74.51 39.08 72.06 46.88 C71.07 47.37 71.07 47.37 70.06 47.88 C70.06 49.19 70.06 50.51 70.06 51.88 C70.72 51.88 71.38 51.88 72.06 51.88 C72.06 52.53 72.06 53.19 72.06 53.88 C74.42 54.56 74.42 54.56 77.06 54.88 C78.05 54.22 79.04 53.56 80.06 52.88 C84.17 51.73 88.13 51.77 92.38 51.81 C93.63 51.82 94.88 51.83 96.18 51.84 C97.13 51.85 98.08 51.86 99.06 51.88 C99.26 56.09 98.9 58.95 97.06 62.75 C96.51 63.92 96.51 63.92 95.94 65.12 C95.65 65.7 95.36 66.28 95.06 66.88 C94.4 66.88 93.74 66.88 93.06 66.88 C92.07 69.19 91.08 71.5 90.06 73.88 C89.4 73.88 88.74 73.88 88.06 73.88 C88.06 74.87 88.06 75.86 88.06 76.88 C88.72 76.88 89.38 76.88 90.06 76.88 C91.54 79.83 91.12 82.62 91.06 85.88 C92.38 85.88 93.7 85.88 95.06 85.88 C95.06 88.19 95.06 90.5 95.06 92.88 C92.42 92.55 89.78 92.22 87.06 91.88 C87.06 93.19 87.06 94.51 87.06 95.88 C90.36 95.88 93.66 95.88 97.06 95.88 C98.22 99.35 97.84 100.22 96.62 103.56 C96.34 104.37 96.05 105.18 95.75 106.01 C95.53 106.63 95.3 107.24 95.06 107.88 C95.72 107.88 96.38 107.88 97.06 107.88 C97.06 106.88 97.06 105.89 97.06 104.88 C98.38 104.55 99.7 104.22 101.06 103.88 C101.06 105.86 101.06 107.83 101.06 109.88 C99.74 109.88 98.42 109.88 97.06 109.88 C97.06 110.87 97.06 111.86 97.06 112.88 C96.4 112.88 95.74 112.88 95.06 112.88 C95.06 113.87 95.06 114.86 95.06 115.88 C92.42 115.88 89.78 115.88 87.06 115.88 C87.06 116.53 87.06 117.19 87.06 117.88 C85.08 117.88 83.1 117.88 81.06 117.88 C80.73 118.53 80.4 119.19 80.06 119.88 C79.07 119.22 78.08 118.56 77.06 117.88 C77.07 118.57 77.09 119.27 77.1 119.99 C77.11 120.9 77.12 121.81 77.12 122.75 C77.14 123.65 77.15 124.56 77.16 125.49 C77.06 127.88 77.06 127.88 76.06 129.88 C77.38 130.21 78.7 130.53 80.06 130.88 C79.73 131.87 79.4 132.86 79.06 133.88 C77.74 133.88 76.42 133.88 75.06 133.88 C75.06 132.88 75.06 131.89 75.06 130.88 C73.41 130.88 71.76 130.88 70.06 130.88 C66.99 125.11 67.28 118.04 69.06 111.88 C69.72 112.2 70.38 112.53 71.06 112.88 C71.06 116.5 71.06 120.13 71.06 123.88 C71.39 123.88 71.72 123.88 72.06 123.88 C72.12 122.8 72.18 121.73 72.25 120.63 C72.33 119.23 72.42 117.83 72.5 116.44 C72.54 115.73 72.58 115.02 72.62 114.29 C72.95 108.99 72.95 108.99 74.06 107.88 C75.73 107.83 77.4 107.83 79.06 107.88 C79.06 106.56 79.06 105.24 79.06 103.88 C78.49 104.06 77.91 104.25 77.31 104.44 C74.86 104.92 73.42 104.63 71.06 103.88 C70.73 105.19 70.4 106.51 70.06 107.88 C68.06 104.88 68.06 104.88 68.06 100.88 C65.75 100.88 63.44 100.88 61.06 100.88 C60.73 99.56 60.4 98.24 60.06 96.88 C12.05 97.37 12.05 97.37 -36.94 97.88 C-37.43 99.85 -37.43 99.85 -37.94 101.88 C-39.59 101.88 -41.24 101.88 -42.94 101.88 C-42.94 111.44 -42.94 121.01 -42.94 130.88 C-42.28 131.21 -41.62 131.53 -40.94 131.88 C-41.6 131.88 -42.26 131.88 -42.94 131.88 C-42.94 134.51 -42.94 137.15 -42.94 139.88 C-6.64 139.54 29.66 139.22 67.06 138.88 C67.39 137.23 67.72 135.57 68.06 133.88 C69.38 133.88 70.7 133.88 72.06 133.88 C72.06 134.53 72.06 135.19 72.06 135.88 C74.37 135.88 76.68 135.88 79.06 135.88 C79.06 136.53 79.06 137.19 79.06 137.88 C76.09 138.21 73.12 138.53 70.06 138.88 C70.39 139.53 70.72 140.19 71.06 140.88 C72.54 140.9 74.02 140.92 75.5 140.94 C76.74 140.95 76.74 140.95 78 140.97 C80.05 141.11 80.05 141.11 81.06 139.88 C88.61 139.35 95.39 139.06 102.06 142.88 C101.4 143.53 100.74 144.19 100.06 144.88 C99.41 147.45 99.41 147.45 99.06 149.88 C99.72 149.88 100.38 149.88 101.06 149.88 C101.06 151.19 101.06 152.51 101.06 153.88 C102.38 153.88 103.7 153.88 105.06 153.88 C105.06 154.53 105.06 155.19 105.06 155.88 C107.04 155.88 109.02 155.88 111.06 155.88 C111.06 157.19 111.06 158.51 111.06 159.88 C110.4 159.54 109.74 159.22 109.06 158.88 C107.06 158.84 105.06 158.83 103.06 158.88 C103.06 159.87 103.06 160.86 103.06 161.88 C95.64 162.87 95.64 162.87 88.06 163.88 C88.39 164.21 88.72 164.53 89.06 164.88 C89.17 166.01 89.27 167.14 89.38 168.31 C89.6 169.49 89.83 170.66 90.06 171.88 C90.7 172.18 91.34 172.48 92 172.8 C94.06 173.88 94.06 173.88 95.04 176.08 C95.36 177.37 95.36 177.37 95.69 178.69 C96.43 181.52 97.14 184.06 98.31 186.75 C99.2 189.26 99 190.41 98.06 192.88 C97.73 193.53 97.4 194.19 97.06 194.88 C92.5 194.33 89.09 193.08 85.06 190.88 C85.72 190.54 86.38 190.22 87.06 189.88 C87.06 189.22 87.06 188.56 87.06 187.88 C81.68 186.96 76.52 186.76 71.06 186.88 C71.2 189.44 71.35 192 71.5 194.56 C71.54 195.28 71.58 196 71.62 196.75 C71.85 200.56 72.3 204.13 73.06 207.88 C73.13 209.64 73.15 211.42 73.12 213.19 C73.12 214.07 73.11 214.95 73.1 215.86 C73.09 216.53 73.07 217.19 73.06 217.88 C71.06 218.88 71.06 218.88 69.25 218.41 C63.26 215.91 59 212.46 54.32 208 C51.33 205.19 48.98 203.18 45.06 201.88 C44.98 203.09 44.9 204.31 44.81 205.56 C43.71 215.41 39.91 224.81 36.06 233.88 C33.37 230.6 30.98 227.29 28.75 223.69 C25.81 218.99 22.7 214.46 19.45 209.97 C18.06 207.88 18.06 207.88 17.06 204.88 C16.4 204.54 15.74 204.22 15.06 203.88 C14.79 204.78 14.53 205.69 14.25 206.62 C13.16 209.6 12.2 211.56 10.06 213.88 C9.4 213.88 8.74 213.88 8.06 213.88 C7.81 214.6 7.57 215.32 7.31 216.06 C5.37 220.42 2.4 223.54 -0.94 226.88 C-1.6 227.87 -2.26 228.86 -2.94 229.88 C-3.6 229.88 -4.26 229.88 -4.94 229.88 C-5.78 227.15 -6.61 224.42 -7.44 221.69 C-7.8 220.53 -7.8 220.53 -8.16 219.36 C-9.34 215.43 -10.27 212.02 -9.94 207.88 C-10.6 207.88 -11.26 207.88 -11.94 207.88 C-12.93 202.43 -12.93 202.43 -13.94 196.88 C-15.26 197.87 -16.58 198.86 -17.94 199.88 C-18.93 199.88 -19.92 199.88 -20.94 199.88 C-20.94 200.53 -20.94 201.19 -20.94 201.88 C-23.14 203.2 -25.35 204.51 -27.56 205.81 C-28.18 206.19 -28.8 206.56 -29.43 206.94 C-33.27 209.19 -36.43 210.44 -40.94 210.88 C-41 206.88 -41.03 202.88 -41.06 198.88 C-41.08 197.75 -41.1 196.62 -41.11 195.46 C-41.15 189.22 -40.8 183.84 -38.94 177.88 C-39.51 178.03 -40.07 178.18 -40.66 178.33 C-51.52 181.19 -61.63 183.82 -72.94 182.88 C-70 175.18 -67.02 167.51 -63.94 159.88 C-63.28 159.88 -62.62 159.88 -61.94 159.88 C-60.86 157.22 -59.84 154.59 -58.94 151.88 C-59.57 151.91 -60.2 151.94 -60.85 151.98 C-71.22 152.29 -81.07 149.93 -90.94 146.88 C-90.94 145.56 -90.94 144.24 -90.94 142.88 C-90.28 142.88 -89.62 142.88 -88.94 142.88 C-88.71 142.31 -88.48 141.74 -88.24 141.16 C-86.6 138.28 -84.57 136.54 -82.06 134.38 C-79.53 132.17 -77.07 130.01 -74.74 127.59 C-72.94 125.88 -72.94 125.88 -70.94 125.88 C-70.61 124.22 -70.28 122.57 -69.94 120.88 C-70.66 120.76 -71.38 120.65 -72.12 120.54 C-79.66 118.77 -86.52 113.59 -93.12 109.62 C-94.23 108.96 -95.34 108.29 -96.48 107.61 C-97.7 106.75 -97.7 106.75 -98.94 105.88 C-98.94 105.22 -98.94 104.56 -98.94 103.88 C-96.44 102.6 -93.94 101.33 -91.44 100.06 C-90.74 99.71 -90.05 99.35 -89.33 98.98 C-76.15 92.33 -76.15 92.33 -68.94 92.88 C-70.32 89.66 -71.82 87.9 -74.56 85.75 C-76.48 84.24 -76.48 84.24 -77.94 82.88 C-77.94 82.22 -77.94 81.56 -77.94 80.88 C-79.42 80.38 -79.42 80.38 -80.94 79.88 C-82.91 77.55 -82.91 77.55 -85 74.62 C-86.04 73.19 -86.04 73.19 -87.1 71.73 C-88.76 69.15 -89.92 66.76 -90.94 63.88 C-83.92 63.04 -77.01 62.72 -69.94 62.75 C-68.53 62.74 -68.53 62.74 -67.09 62.74 C-65.75 62.74 -65.75 62.74 -64.38 62.74 C-63.57 62.74 -62.76 62.74 -61.93 62.75 C-59.94 62.88 -59.94 62.88 -57.94 63.88 C-58.28 63.16 -58.61 62.45 -58.96 61.71 C-61.4 56.48 -63.44 51.47 -64.94 45.88 C-65.98 43.02 -67.05 40.17 -68.13 37.33 C-68.94 34.88 -68.94 34.88 -68.94 31.88 C-61.99 32.52 -55.56 34.74 -48.94 36.88 C-48.94 37.53 -48.94 38.19 -48.94 38.88 C-48.05 39.02 -47.16 39.16 -46.25 39.31 C-43.47 39.79 -40.7 40.31 -37.94 40.88 C-38.1 39.63 -38.26 38.38 -38.43 37.1 C-39.06 31.5 -39.05 25.94 -39 20.31 C-39 19.3 -38.99 18.3 -38.99 17.26 C-38.97 14.8 -38.96 12.34 -38.94 9.88 C-36.6 9.73 -36.6 9.73 -33.94 9.88 C-31.38 12.25 -31.38 12.25 -28.94 14.88 C-26.77 16.17 -26.77 16.17 -24.94 16.88 C-24.94 17.53 -24.94 18.19 -24.94 18.88 C-22.96 19.37 -22.96 19.37 -20.94 19.88 C-20.44 21.85 -20.44 21.85 -19.94 23.88 C-19.38 23.96 -18.82 24.04 -18.25 24.12 C-15.24 25.1 -13.32 26.83 -10.94 28.88 C-10.84 28.21 -10.74 27.54 -10.64 26.86 C-9.64 20.69 -8.07 15.15 -5.82 9.33 C-4.82 6.55 -4.4 3.79 -3.94 0.88 C-1.94 -0.12 -1.94 -0.12 0 0 Z " fill="#A319F8" transform="translate(240.9375,128.125)"/>
<path d="M0 0 C35.97 0 71.94 0 109 0 C109 12.21 109 24.42 109 37 C108 38 108 38 106.19 38.12 C105.39 38.12 104.6 38.12 103.78 38.12 C102.87 38.12 101.96 38.12 101.02 38.12 C100.02 38.12 99.01 38.12 97.97 38.11 C96.92 38.11 95.87 38.11 94.78 38.11 C91.28 38.11 87.78 38.11 84.28 38.1 C81.86 38.1 79.44 38.09 77.02 38.09 C70.63 38.09 64.25 38.08 57.87 38.07 C51.36 38.06 44.85 38.05 38.34 38.05 C25.56 38.04 12.78 38.02 0 38 C0 25.46 0 12.92 0 0 Z " fill="#6C5190" transform="translate(198,230)"/>
<path d="M0 0 C5.64 1.37 11.33 2.88 16.69 5.12 C19.74 6.28 22.77 6.62 26 7 C26 7.66 26 8.32 26 9 C27.98 9 29.96 9 32 9 C38.55 35.54 38.55 35.54 38 49 C37.01 49.5 37.01 49.5 36 50 C33.43 49.13 30.99 48.18 28.5 47.12 C27.39 46.66 27.39 46.66 26.25 46.19 C17.64 42.52 9.31 38.29 1 34 C0.99 34.74 0.97 35.49 0.96 36.25 C0.44 48.13 -2.29 59.46 -5 71 C-6.8 71.66 -6.8 71.66 -9 72 C-10.62 71.03 -10.62 71.03 -12.21 69.49 C-12.81 68.92 -13.41 68.35 -14.03 67.77 C-14.97 66.83 -14.97 66.83 -15.94 65.88 C-16.59 65.25 -17.24 64.62 -17.92 63.97 C-19.96 61.99 -21.98 60 -24 58 C-24.65 57.36 -25.3 56.72 -25.97 56.06 C-29.67 52.4 -33.35 48.71 -37 45 C-36.75 44.18 -36.49 43.36 -36.23 42.51 C-35.51 40.18 -34.8 37.85 -34.08 35.52 C-33.44 33.42 -32.79 31.32 -32.14 29.23 C-30.49 23.86 -29.15 18.5 -28 13 C-23.51 13.48 -21.7 14.89 -18.69 18.19 C-12.65 24.48 -7.04 28.7 1 32 C1.13 21.28 0.8 10.69 0 0 Z " fill="#7A14BB" transform="translate(314,317)"/>
<path d="M0 0 C0.69 0.02 1.37 0.04 2.08 0.05 C4.02 0.17 4.02 0.17 7.19 0.81 C8.64 2.86 8.64 2.86 9.19 4.81 C12.65 4.32 12.65 4.32 16.19 3.81 C16.52 2.82 16.85 1.83 17.19 0.81 C17.19 3.78 17.19 6.75 17.19 9.81 C16.69 7.83 16.69 7.83 16.19 5.81 C15.2 6.14 14.21 6.47 13.19 6.81 C12.2 6.32 12.2 6.32 11.19 5.81 C11.19 6.47 11.19 7.13 11.19 7.81 C12.18 7.81 13.17 7.81 14.19 7.81 C13.86 8.47 13.53 9.13 13.19 9.81 C12.2 9.32 12.2 9.32 11.19 8.81 C11.19 10.79 11.19 12.77 11.19 14.81 C11.85 14.81 12.51 14.81 13.19 14.81 C13.19 13.49 13.19 12.17 13.19 10.81 C14.51 10.81 15.83 10.81 17.19 10.81 C17.19 15.76 17.19 20.71 17.19 25.81 C15.7 25.32 15.7 25.32 14.19 24.81 C14.52 24.15 14.85 23.49 15.19 22.81 C13.73 23.06 13.73 23.06 12.25 23.31 C8.19 23.81 8.19 23.81 -0.81 23.81 C-0.81 16.55 -0.81 9.29 -0.81 1.81 C-3.45 1.81 -6.09 1.81 -8.81 1.81 C-8.81 11.38 -8.81 20.95 -8.81 30.81 C-1.71 30.77 -1.71 30.77 5.4 30.72 C6.73 30.72 6.73 30.72 8.08 30.71 C8.99 30.71 9.89 30.7 10.83 30.7 C13.19 30.81 13.19 30.81 16.19 31.81 C16.52 30.49 16.85 29.17 17.19 27.81 C17.19 29.13 17.19 30.45 17.19 31.81 C20.82 31.81 24.45 31.81 28.19 31.81 C26.19 33.81 26.19 33.81 22.7 34 C21.2 33.98 19.71 33.96 18.21 33.92 C16.56 33.9 14.91 33.89 13.26 33.87 C12.42 33.86 11.57 33.85 10.7 33.84 C6.86 33.8 3.01 33.85 -0.83 33.9 C-1.59 33.91 -2.34 33.92 -3.12 33.93 C-5.48 33.97 -7.84 34 -10.2 34.03 C-11.87 34.05 -13.55 34.08 -15.23 34.1 C-19.58 34.16 -23.93 34.22 -28.28 34.28 C-32.74 34.34 -37.21 34.4 -41.68 34.46 C-50.39 34.57 -59.1 34.69 -67.81 34.81 C-67.81 32.5 -67.81 30.19 -67.81 27.81 C-67.05 28.14 -66.29 28.47 -65.5 28.81 C-60.62 30.14 -55.85 30.35 -50.81 29.81 C-49.82 29.15 -48.83 28.49 -47.81 27.81 C-45.12 28.19 -45.12 28.19 -42.81 28.81 C-42.81 29.47 -42.81 30.13 -42.81 30.81 C-39.41 30.71 -39.41 30.71 -35.81 29.81 C-35.4 28.97 -34.99 28.12 -34.56 27.25 C-33.7 26.04 -33.7 26.04 -32.81 24.81 C-29.12 24.35 -25.52 24.53 -21.81 24.81 C-21.15 26.79 -20.49 28.77 -19.81 30.81 C-17.5 30.81 -15.19 30.81 -12.81 30.81 C-14.69 24.44 -16.67 18.11 -18.81 11.81 C-19.47 11.81 -20.13 11.81 -20.81 11.81 C-20.81 10.16 -20.81 8.51 -20.81 6.81 C-21.47 6.81 -22.13 6.81 -22.81 6.81 C-23.31 3.84 -23.31 3.84 -23.81 0.81 C-15.85 0.07 -7.99 -0.36 0 0 Z " fill="#575576" transform="translate(266.8125,232.1875)"/>
<path d="M0 0 C0.93 -0 1.85 -0 2.81 -0 C5.88 0 8.96 0.01 12.03 0.02 C14.16 0.02 16.28 0.02 18.41 0.02 C24.02 0.02 29.62 0.03 35.23 0.04 C40.95 0.06 46.66 0.06 52.38 0.06 C63.6 0.08 74.83 0.09 86.05 0.11 C86.16 0.75 86.26 1.39 86.36 2.05 C86.59 2.73 86.82 3.41 87.05 4.11 C88.04 4.44 89.03 4.77 90.05 5.11 C56.39 5.11 22.73 5.11 -11.95 5.11 C-11.62 3.79 -11.29 2.47 -10.95 1.11 C-7.56 -0.58 -3.72 -0.02 0 0 Z " fill="#8C17D6" transform="translate(214.94775390625,224.886474609375)"/>
<path d="M0 0 C1.13 0.02 2.27 0.04 3.44 0.06 C3.77 1.71 4.1 3.36 4.44 5.06 C5.1 5.06 5.76 5.06 6.44 5.06 C6.44 6.71 6.44 8.36 6.44 10.06 C7.1 10.06 7.76 10.06 8.44 10.06 C9.44 12.29 10.43 14.51 11.41 16.75 C12.16 18.44 12.92 20.13 13.69 21.81 C14.53 24.34 14.59 26.41 14.44 29.06 C11.06 29.25 11.06 29.25 7.44 29.06 C5.44 26.06 5.44 26.06 5.44 23.06 C1.71 23.13 -1.91 23.29 -5.56 24.06 C-7.41 26.52 -7.41 26.52 -8.56 29.06 C-11.75 29.38 -11.75 29.38 -14.56 29.06 C-14.23 23.05 -12.73 18.96 -9.9 13.67 C-8.12 10.21 -6.74 6.63 -5.36 3 C-3.99 -0.32 -3.94 0.07 0 0 Z " fill="#9D5BC2" transform="translate(239.5625,233.9375)"/>
<path d="M0 0 C32.67 0 65.34 0 99 0 C98.67 0.99 98.34 1.98 98 3 C94.01 4.33 90.19 4.13 86.03 4.11 C84.65 4.11 84.65 4.11 83.25 4.11 C80.22 4.11 77.18 4.11 74.14 4.1 C72.04 4.1 69.94 4.09 67.83 4.09 C62.3 4.09 56.76 4.08 51.22 4.07 C45.57 4.06 39.92 4.05 34.27 4.05 C23.18 4.04 12.09 4.02 1 4 C0.67 2.68 0.34 1.36 0 0 Z " fill="#8C16D8" transform="translate(203,268)"/>
<path d="M0 0 C0 0.99 0 1.98 0 3 C0.85 2.99 1.71 2.98 2.59 2.96 C3.69 2.96 4.8 2.95 5.94 2.94 C7.04 2.93 8.14 2.91 9.28 2.9 C12 3 12 3 13 4 C13.12 7 13.12 7 13 10 C12 11 12 11 9.28 11.1 C7.62 11.08 7.62 11.08 5.94 11.06 C4.28 11.05 4.28 11.05 2.59 11.04 C1.74 11.02 0.88 11.01 0 11 C0.33 11.99 0.66 12.98 1 14 C7.93 14.5 7.93 14.5 15 15 C15 17.31 15 19.62 15 22 C7.74 22 0.48 22 -7 22 C-7 15.07 -7 8.14 -7 1 C-4.54 -0.23 -2.72 -0.07 0 0 Z " fill="#A855C3" transform="translate(292,241)"/>
<path d="M0 0 C2.64 0 5.28 0 8 0 C9.14 7.5 8.76 14.47 8 22 C9.01 21.87 9.01 21.87 10.05 21.75 C10.94 21.64 11.83 21.54 12.75 21.44 C13.63 21.33 14.51 21.23 15.42 21.12 C17.88 21.01 19.67 21.26 22 22 C22 24.31 22 26.62 22 29 C14.74 29 7.48 29 0 29 C0 19.43 0 9.86 0 0 Z " fill="#A059C2" transform="translate(258,234)"/>
<path d="M0 0 C1.32 0 2.64 0 4 0 C4.33 2.64 4.66 5.28 5 8 C6.65 8.33 8.3 8.66 10 9 C10.29 8.07 10.58 7.14 10.88 6.19 C12 3 12 3 14 0 C16.31 0.06 16.31 0.06 19 1 C20.81 4.56 20.81 4.56 22 8 C22.33 5.69 22.66 3.38 23 1 C24.65 0.67 26.3 0.34 28 0 C28.33 0.66 28.66 1.32 29 2 C29.66 1.34 30.32 0.68 31 0 C32.32 0 33.64 0 35 0 C34.47 0.87 34.47 0.87 33.94 1.75 C32.83 4.41 33.05 5.33 34 8 C34.5 9.49 34.5 9.49 35 11 C33.12 11.62 33.12 11.62 31 12 C30.34 11.34 29.68 10.68 29 10 C28.34 10.66 27.68 11.32 27 12 C22.4 12.23 18.5 11.96 14 11 C13.67 11.33 13.34 11.66 13 12 C10.81 12.07 8.62 12.08 6.44 12.06 C4.64 12.05 4.64 12.05 2.81 12.04 C1.88 12.02 0.95 12.01 0 12 C-1.19 9.62 -1.13 8.09 -1.12 5.44 C-1.13 4.23 -1.13 4.23 -1.13 3 C-1 1 -1 1 0 0 Z " fill="#9246A5" transform="translate(183,420)"/>
<path d="M0 0 C6.93 0 13.86 0 21 0 C21.71 5.71 22.11 10.38 22.06 16 C22.06 16.68 22.05 17.36 22.05 18.06 C22.04 19.71 22.02 21.35 22 23 C17.38 23 12.76 23 8 23 C7.67 21.68 7.34 20.36 7 19 C10.96 18.67 14.92 18.34 19 18 C19 16.02 19 14.04 19 12 C15.04 11.67 11.08 11.34 7 11 C7 10.01 7 9.02 7 8 C4.69 8.33 2.38 8.66 0 9 C0 6.03 0 3.06 0 0 Z " fill="#566EC4" transform="translate(285,233)"/>
<path d="M0 0 C0.33 0 0.66 0 1 0 C1 2.31 1 4.62 1 7 C1.94 6.93 2.89 6.86 3.86 6.79 C14.31 6.07 24.72 5.79 35.19 5.68 C36.87 5.66 38.55 5.64 40.23 5.62 C44.6 5.57 48.96 5.52 53.33 5.47 C57.81 5.42 62.29 5.36 66.77 5.31 C75.51 5.2 84.26 5.1 93 5 C91.02 4.67 89.04 4.34 87 4 C87 3.67 87 3.34 87 3 C94.26 3 101.52 3 109 3 C108.67 4.65 108.34 6.3 108 8 C72.36 8 36.72 8 0 8 C0 5.36 0 2.72 0 0 Z " fill="#6C319D" transform="translate(198,260)"/>
<path d="M0 0 C0.33 0 0.66 0 1 0 C1 2.97 1 5.94 1 9 C0.67 7.68 0.34 6.36 0 5 C-0.99 5.33 -1.98 5.66 -3 6 C-3.66 5.67 -4.32 5.34 -5 5 C-5 5.66 -5 6.32 -5 7 C-4.01 7 -3.02 7 -2 7 C-2.33 7.66 -2.66 8.32 -3 9 C-3.66 8.67 -4.32 8.34 -5 8 C-5 9.98 -5 11.96 -5 14 C-4.34 14 -3.68 14 -3 14 C-3 12.68 -3 11.36 -3 10 C-1.68 10 -0.36 10 1 10 C1 14.95 1 19.9 1 25 C0.01 24.67 -0.98 24.34 -2 24 C-1.67 23.34 -1.34 22.68 -1 22 C-2.45 22.25 -2.45 22.25 -3.94 22.5 C-8.31 23.14 -12.59 23.07 -17 23 C-17 18.71 -17 14.42 -17 10 C-15.91 10.02 -14.81 10.04 -13.69 10.06 C-10.06 10.19 -10.06 10.19 -7 9 C-7.99 8.34 -8.98 7.68 -10 7 C-8.68 7 -7.36 7 -6 7 C-6 6.01 -6 5.02 -6 4 C-4.02 3.67 -2.04 3.34 0 3 C0 2.01 0 1.02 0 0 Z " fill="#383954" transform="translate(283,233)"/>
<path d="M0 0 C1.13 0.02 2.27 0.04 3.44 0.06 C3.44 1.38 3.44 2.7 3.44 4.06 C2.45 4.06 1.46 4.06 0.44 4.06 C1.76 4.72 3.08 5.38 4.44 6.06 C4.91 5.26 5.39 4.45 5.88 3.62 C7.44 1.06 7.44 1.06 8.44 0.06 C14.65 -0.4 14.65 -0.4 17.38 1.19 C18.94 3.95 18.83 5.94 18.44 9.06 C17.38 10.94 17.38 10.94 15.44 12.06 C11.6 12.48 9.33 12.61 6 10.56 C5.48 10.07 4.97 9.57 4.44 9.06 C4.44 9.72 4.44 10.38 4.44 11.06 C1.48 12.54 -1.3 12.12 -4.56 12.06 C-4.56 10.74 -4.56 9.42 -4.56 8.06 C-3.9 8.06 -3.24 8.06 -2.56 8.06 C-3.55 7.4 -4.54 6.74 -5.56 6.06 C-4.49 0.08 -4.49 0.08 0 0 Z M11.44 3.06 C10.78 4.38 10.12 5.7 9.44 7.06 C11.42 8.05 11.42 8.05 13.44 9.06 C13.77 7.41 14.1 5.76 14.44 4.06 C13.45 3.73 12.46 3.4 11.44 3.06 Z " fill="#9744AB" transform="translate(162.5625,419.9375)"/>
<path d="M0 0 C3.74 3.48 6.33 6.86 8.81 11.31 C9.15 11.91 9.48 12.5 9.82 13.11 C13.79 20.28 17.4 27.64 21 35 C21.99 35 22.98 35 24 35 C23.5 35.99 23.5 35.99 23 37 C21.02 37 19.04 37 17 37 C17 35.02 17 33.04 17 31 C16.01 30.67 15.02 30.34 14 30 C13.67 29.01 13.34 28.02 13 27 C10.98 26.27 10.98 26.27 9 26 C8.88 25.19 8.76 24.38 8.63 23.55 C8.47 22.48 8.3 21.41 8.12 20.31 C7.96 19.26 7.8 18.2 7.63 17.11 C6.57 11.68 6.57 11.68 3.19 7.56 C0.23 6.8 -1.32 7.66 -4 9 C-4 9.66 -4 10.32 -4 11 C-4.74 11.66 -5.49 12.32 -6.25 13 C-9.51 16.06 -10.61 19.72 -12.01 23.89 C-12.34 24.59 -12.66 25.28 -13 26 C-13.99 26.33 -14.98 26.66 -16 27 C-14.61 22.35 -12.67 18.25 -10.25 14.06 C-9.9 13.45 -9.55 12.84 -9.19 12.21 C-6.52 7.66 -3.62 3.81 0 0 Z " fill="#761FB0" transform="translate(259,92)"/>
<path d="M0 0 C2.31 0 4.62 0 7 0 C7.33 1.65 7.66 3.3 8 5 C8.66 5 9.32 5 10 5 C10 6.65 10 8.3 10 10 C10.66 10 11.32 10 12 10 C12.99 12.97 13.98 15.94 15 19 C14.01 18.67 13.02 18.34 12 18 C11.67 16.02 11.34 14.04 11 12 C9.06 12.28 9.06 12.28 7 13 C6.01 14.49 6.01 14.49 5 16 C4.01 16 3.02 16 2 16 C1.67 15.34 1.34 14.68 1 14 C-2.69 14.5 -4.6 15.1 -7 18 C-6.44 13.31 -5.12 9.8 -2.94 5.62 C-2.39 4.57 -1.84 3.51 -1.28 2.41 C-0.86 1.62 -0.43 0.82 0 0 Z " fill="#726AC4" transform="translate(236,234)"/>
<path d="M0 0 C0.83 0.01 1.65 0.02 2.51 0.03 C3.4 0.04 4.3 0.04 5.22 0.05 C6.63 0.08 6.63 0.08 8.06 0.1 C9.01 0.11 9.95 0.12 10.93 0.13 C13.26 0.15 15.6 0.19 17.94 0.23 C17.61 1.55 17.28 2.87 16.94 4.23 C15.95 4.23 14.96 4.23 13.94 4.23 C13.94 6.87 13.94 9.51 13.94 12.23 C12.62 12.23 11.3 12.23 9.94 12.23 C9.94 9.59 9.94 6.95 9.94 4.23 C8.29 4.23 6.64 4.23 4.94 4.23 C5.93 5.71 5.93 5.71 6.94 7.23 C6.42 10.74 6.42 10.74 4.94 12.23 C2.27 12.37 -0.39 12.27 -3.06 12.23 C-3.06 10.91 -3.06 9.59 -3.06 8.23 C-3.27 7.2 -3.48 6.16 -3.69 5.1 C-3.81 4.15 -3.94 3.2 -4.06 2.23 C-2.06 0.23 -2.06 0.23 0 0 Z " fill="#8E439F" transform="translate(301.06298828125,419.77294921875)"/>
<path d="M0 0 C0 0.99 0 1.98 0 3 C0.85 2.99 1.71 2.98 2.59 2.96 C3.69 2.96 4.8 2.95 5.94 2.94 C7.04 2.93 8.14 2.91 9.28 2.9 C12 3 12 3 13 4 C13.12 7 13.12 7 13 10 C12 11 12 11 9.28 11.1 C7.62 11.08 7.62 11.08 5.94 11.06 C4.28 11.05 4.28 11.05 2.59 11.04 C1.74 11.02 0.88 11.01 0 11 C-0.33 11.99 -0.66 12.98 -1 14 C-1.33 12.35 -1.66 10.7 -2 9 C-2.99 8.67 -3.98 8.34 -5 8 C-5.33 10.31 -5.66 12.62 -6 15 C-6.33 15 -6.66 15 -7 15 C-7 10.38 -7 5.76 -7 1 C-4.54 -0.23 -2.72 -0.07 0 0 Z " fill="#8564C4" transform="translate(292,241)"/>
<path d="M0 0 C2.06 1.19 2.06 1.19 4.06 4.19 C3.69 6.88 3.69 6.88 3.06 9.19 C1.41 9.52 -0.24 9.85 -1.94 10.19 C-2.27 9.2 -2.6 8.21 -2.94 7.19 C-5.25 6.86 -7.56 6.53 -9.94 6.19 C-9.94 7.51 -9.94 8.83 -9.94 10.19 C-10.93 10.19 -11.92 10.19 -12.94 10.19 C-12.94 9.53 -12.94 8.87 -12.94 8.19 C-14.11 7.97 -14.11 7.97 -15.31 7.75 C-17.94 7.19 -17.94 7.19 -19.94 6.19 C-19.94 5.53 -19.94 4.87 -19.94 4.19 C-19.28 4.19 -18.62 4.19 -17.94 4.19 C-17.94 3.53 -17.94 2.87 -17.94 2.19 C-12.02 -1.45 -6.6 -1.83 0 0 Z " fill="#5D6DC3" transform="translate(217.9375,233.8125)"/>
<path d="M0 0 C0.66 0.66 1.32 1.32 2 2 C4.07 2.64 4.07 2.64 6 3 C6.33 4.65 6.66 6.3 7 8 C10.96 8.33 14.92 8.66 19 9 C19.33 10.32 19.66 11.64 20 13 C17.69 13 15.38 13 13 13 C13.99 14.49 13.99 14.49 15 16 C14 17 14 17 11.19 17.25 C8 17 8 17 5.94 15.44 C5.3 14.96 4.66 14.49 4 14 C1.4 14.37 1.4 14.37 -1 15 C-1.03 12.69 -1.05 10.38 -1.06 8.06 C-1.07 6.77 -1.09 5.49 -1.1 4.16 C-1 1 -1 1 0 0 Z " fill="#8A60CB" transform="translate(199,239)"/>
<path d="M0 0 C4.95 0 9.9 0 15 0 C15 3.96 15 7.92 15 12 C13.35 11.67 11.7 11.34 10 11 C10 8.36 10 5.72 10 3 C8.35 3.33 6.7 3.66 5 4 C6.32 4.33 7.64 4.66 9 5 C9 5.99 9 6.98 9 8 C7.35 8 5.7 8 4 8 C4 9.32 4 10.64 4 12 C2.68 12 1.36 12 0 12 C0 8.04 0 4.08 0 0 Z " fill="#8B3FA0" transform="translate(141,420)"/>
<path d="M0 0 C5 1 5 1 7 2 C7.33 1.34 7.66 0.68 8 0 C9.32 0 10.64 0 12 0 C12 3.96 12 7.92 12 12 C7 11 7 11 5 9 C4.67 9.99 4.34 10.98 4 12 C2.68 12 1.36 12 0 12 C0 8.04 0 4.08 0 0 Z " fill="#8E3EA3" transform="translate(268,420)"/>
<path d="M0 0 C1.44 -0.08 2.87 -0.14 4.31 -0.19 C5.51 -0.24 5.51 -0.24 6.74 -0.29 C9 0 9 0 10.81 1.22 C12.41 3.61 12.13 4.89 11.69 7.69 C11.51 8.9 11.51 8.9 11.32 10.14 C11.22 10.75 11.11 11.37 11 12 C10.28 11.81 9.56 11.63 8.81 11.44 C5.87 10.98 3.88 11.36 1 12 C0 11 0 11 -0.1 8.5 C-0.09 7.49 -0.07 6.48 -0.06 5.44 C-0.05 4.43 -0.04 3.41 -0.04 2.37 C-0.02 1.59 -0.01 0.81 0 0 Z M5 4 C5.33 4.66 5.66 5.32 6 6 C6.33 5.34 6.66 4.68 7 4 C6.34 4 5.68 4 5 4 Z " fill="#8C3F9E" transform="translate(333,420)"/>
<path d="M0 0 C4.75 0.75 4.75 0.75 7 3 C7.33 2.01 7.66 1.02 8 0 C9.32 0 10.64 0 12 0 C12 3.96 12 7.92 12 12 C10.35 11.67 8.7 11.34 7 11 C6.67 10.34 6.34 9.68 6 9 C5.01 10.49 5.01 10.49 4 12 C3.01 12 2.02 12 1 12 C0.04 9.12 -0.11 7.3 -0.06 4.31 C-0.05 3.5 -0.04 2.7 -0.04 1.86 C-0.02 1.25 -0.01 0.63 0 0 Z " fill="#9140A2" transform="translate(238,420)"/>
<path d="M0 0 C4.62 0 9.24 0 14 0 C14 4.95 14 9.9 14 15 C9.38 15 4.76 15 0 15 C-0.33 13.68 -0.66 12.36 -1 11 C4.94 10.5 4.94 10.5 11 10 C11 8.02 11 6.04 11 4 C7.37 3.67 3.74 3.34 0 3 C0 2.01 0 1.02 0 0 Z " fill="#40335F" transform="translate(293,241)"/>
<path d="M0 0 C1.94 1.12 1.94 1.12 3 3 C3.39 6.12 3.5 8.11 1.94 10.88 C-1.11 12.64 -3.56 12.37 -7 12 C-8.94 10.88 -8.94 10.88 -10 9 C-10.39 5.88 -10.5 3.89 -8.94 1.12 C-5.89 -0.64 -3.44 -0.37 0 0 Z M-4 3 C-4.66 4.32 -5.32 5.64 -6 7 C-4.51 7.99 -4.51 7.99 -3 9 C-2.34 7.68 -1.68 6.36 -1 5 C-1.99 4.34 -2.98 3.68 -4 3 Z " fill="#A24DB6" transform="translate(234,420)"/>
<path d="M0 0 C1.94 1.12 1.94 1.12 3 3 C3.39 6.12 3.5 8.11 1.94 10.88 C-1.11 12.64 -3.56 12.37 -7 12 C-8.94 10.88 -8.94 10.88 -10 9 C-10.39 5.88 -10.5 3.89 -8.94 1.12 C-5.89 -0.64 -3.44 -0.37 0 0 Z M-4 3 C-4.66 4.32 -5.32 5.64 -6 7 C-4.51 7.99 -4.51 7.99 -3 9 C-2.34 7.68 -1.68 6.36 -1 5 C-1.99 4.34 -2.98 3.68 -4 3 Z " fill="#9E47B5" transform="translate(329,420)"/>
<path d="M0 0 C3.3 0 6.6 0 10 0 C10 4 10 8 10 12 C8.52 12.03 7.04 12.05 5.56 12.06 C4.33 12.08 4.33 12.08 3.07 12.1 C1 12 1 12 0 11 C-0.07 9.15 -0.08 7.29 -0.06 5.44 C-0.05 4.43 -0.04 3.41 -0.04 2.37 C-0.02 1.59 -0.01 0.81 0 0 Z " fill="#9A4AAB" transform="translate(281,420)"/>
<path d="M0 0 C3.3 0 6.6 0 10 0 C9.71 1.95 9.41 3.91 9.12 5.86 C8.87 8.34 8.87 8.34 10 12 C6.7 12 3.4 12 0 12 C0 8.04 0 4.08 0 0 Z " fill="#9A48AA" transform="translate(346,420)"/>
<path d="M0 0 C2.98 0.14 5.96 0.29 8.94 0.44 C10.18 0.5 10.18 0.5 11.46 0.56 C17 0.84 22.48 1.34 28 2 C28 2.33 28 2.66 28 3 C21.73 3 15.46 3 9 3 C8.67 3.99 8.34 4.98 8 6 C7.01 6 6.02 6 5 6 C4.67 7.32 4.34 8.64 4 10 C4.66 10 5.32 10 6 10 C6.33 12.31 6.66 14.62 7 17 C4.16 14.53 2.8 11.9 1.25 8.5 C0.8 7.54 0.35 6.58 -0.11 5.59 C-1 3 -1 3 0 0 Z " fill="#6E1EA1" transform="translate(131,154)"/>
<path d="M0 0 C2.64 0 5.28 0 8 0 C9.08 7.19 8.79 13.78 8 21 C7.67 21 7.34 21 7 21 C6.67 17.7 6.34 14.4 6 11 C4.02 11 2.04 11 0 11 C0 7.37 0 3.74 0 0 Z " fill="#666CC0" transform="translate(258,234)"/>
<path d="M0 0 C1.32 0 2.64 0 4 0 C4 12.54 4 25.08 4 38 C3.01 38 2.02 38 1 38 C0.98 33.37 0.96 28.75 0.95 24.12 C0.94 22.55 0.93 20.97 0.92 19.4 C0.91 17.14 0.91 14.87 0.9 12.61 C0.9 11.91 0.89 11.21 0.89 10.48 C0.89 7.18 0.97 4.16 2 1 C1.34 0.67 0.68 0.34 0 0 Z " fill="#922BE3" transform="translate(305,229)"/>
<path d="M0 0 C5.94 0 11.88 0 18 0 C17.67 0.99 17.34 1.98 17 3 C16.34 3 15.68 3 15 3 C15 5.64 15 8.28 15 11 C13.68 11 12.36 11 11 11 C11 8.36 11 5.72 11 3 C4.69 2.62 4.69 2.62 -1 5 C-0.67 3.35 -0.34 1.7 0 0 Z " fill="#A34CB3" transform="translate(300,421)"/>
<path d="M0 0 C1.65 0 3.3 0 5 0 C5.91 3.66 5.99 6.43 5.33 10.13 C5.16 11.1 4.99 12.08 4.81 13.08 C4.63 14.08 4.44 15.09 4.25 16.12 C4.08 17.11 3.91 18.09 3.73 19.1 C2.53 25.85 0.91 32.42 -1 39 C-1.33 39 -1.66 39 -2 39 C-1.67 35.04 -1.34 31.08 -1 27 C-0.34 27 0.32 27 1 27 C1.86 19.01 2.46 11.01 3 3 C2.01 2.67 1.02 2.34 0 2 C0 1.34 0 0.68 0 0 Z " fill="#7A2DAB" transform="translate(348,136)"/>
<path d="M0 0 C1.32 0 2.64 0 4 0 C4.33 2.64 4.66 5.28 5 8 C6.32 8.33 7.64 8.66 9 9 C9 9.99 9 10.98 9 12 C6.03 12 3.06 12 0 12 C0 8.04 0 4.08 0 0 Z " fill="#803892" transform="translate(252,420)"/>
<path d="M0 0 C1.32 0.33 2.64 0.66 4 1 C4 3.64 4 6.28 4 9 C5.32 9 6.64 9 8 9 C8.33 10.32 8.66 11.64 9 13 C6.03 13 3.06 13 0 13 C0 8.71 0 4.42 0 0 Z " fill="#403C5C" transform="translate(266,243)"/>
<path d="M0 0 C0.99 0.33 1.98 0.66 3 1 C3 1.99 3 2.98 3 4 C8.61 4 14.22 4 20 4 C18.68 4.33 17.36 4.66 16 5 C16 5.66 16 6.32 16 7 C10.72 7 5.44 7 0 7 C0 4.69 0 2.38 0 0 Z " fill="#3D1B53" transform="translate(199,260)"/>
<path d="M0 0 C4 2 4 2 5.81 3 C8.78 4.36 11.85 5.15 15 6 C15 6.99 15 7.98 15 9 C9.5 9.38 9.5 9.38 6.94 7.44 C5.03 5.68 5.03 5.68 2.25 6.31 C1.51 6.54 0.76 6.77 0 7 C0 4.69 0 2.38 0 0 Z " fill="#50326B" transform="translate(198,247)"/>
<path d="M0 0 C1.94 1.12 1.94 1.12 3 3 C3.19 6.19 3.19 6.19 3 9 C2.01 9.5 2.01 9.5 1 10 C1 7.36 1 4.72 1 2 C-1.31 1.67 -3.62 1.34 -6 1 C-6 1.66 -6 2.32 -6 3 C-5.34 3.33 -4.68 3.66 -4 4 C-4 5.32 -4 6.64 -4 8 C-3.01 7.67 -2.02 7.34 -1 7 C-1.33 7.99 -1.66 8.98 -2 10 C-3.88 9.75 -3.88 9.75 -6 9 C-7.25 6.94 -7.25 6.94 -8 5 C-8.66 6.32 -9.32 7.64 -10 9 C-10.36 3.63 -10.36 3.63 -8.94 1.12 C-5.89 -0.64 -3.44 -0.37 0 0 Z " fill="#8B3D99" transform="translate(234,420)"/>
<path d="M0 0 C2.48 0.5 2.48 0.5 5 1 C5.12 8.62 5.12 8.62 4 12 C2.68 12 1.36 12 0 12 C0 8.04 0 4.08 0 0 Z " fill="#7D358A" transform="translate(262,420)"/>
<path d="M0 0 C0.91 0.17 1.81 0.33 2.75 0.5 C6.11 1.1 6.11 1.1 10 1 C10 1.66 10 2.32 10 3 C7.44 5.3 6.52 6 3 6 C2.67 7.32 2.34 8.64 2 10 C1.34 10 0.68 10 0 10 C0 6.7 0 3.4 0 0 Z " fill="#A946BC" transform="translate(269,421)"/>
<path d="M0 0 C0.33 0 0.66 0 1 0 C2.43 7.41 3.3 14.45 3 22 C1 23 1 23 -0.95 22.44 C-1.66 22.15 -2.38 21.86 -3.12 21.56 C-4.21 21.13 -4.21 21.13 -5.32 20.69 C-5.87 20.46 -6.43 20.24 -7 20 C-4.43 18.38 -3.32 17.96 -0.25 18.38 C0.86 18.68 0.86 18.68 2 19 C1.67 18.09 1.34 17.19 1 16.25 C-0.56 10.94 -0.16 5.48 0 0 Z " fill="#6B22A0" transform="translate(349,344)"/>
<path d="M0 0 C1.98 0 3.96 0 6 0 C6 0.66 6 1.32 6 2 C5.01 2.33 4.02 2.66 3 3 C2.67 3.99 2.34 4.98 2 6 C4.47 5.66 4.47 5.66 7 5 C7.33 4.34 7.66 3.68 8 3 C7.67 4.98 7.34 6.96 7 9 C4.69 9.33 2.38 9.66 0 10 C0 6.7 0 3.4 0 0 Z " fill="#AC50C1" transform="translate(335,421)"/>
<path d="M0 0 C0.99 0.33 1.98 0.66 3 1 C0.36 5.62 -2.28 10.24 -5 15 C-5.66 13.68 -6.32 12.36 -7 11 C-6.12 8.75 -6.12 8.75 -5 7 C-4.34 7 -3.68 7 -3 7 C-3.06 6.22 -3.12 5.43 -3.19 4.62 C-3.13 3.76 -3.06 2.89 -3 2 C-2.01 1.34 -1.02 0.68 0 0 Z " fill="#7125A2" transform="translate(274,362)"/>
<path d="M0 0 C0 0.33 0 0.66 0 1 C-2.64 1.33 -5.28 1.66 -8 2 C-6.72 4.56 -6.72 4.56 -5 7 C-4.01 7 -3.02 7 -2 7 C-2.33 5.68 -2.66 4.36 -3 3 C-2.01 3.33 -1.02 3.66 0 4 C-0.33 5.65 -0.66 7.3 -1 9 C-2.81 9.62 -2.81 9.62 -5 10 C-5.99 9.34 -6.98 8.68 -8 8 C-8.33 8.66 -8.66 9.32 -9 10 C-10 9 -10 9 -10.25 6.12 C-10 3 -10 3 -8.94 1.12 C-6 -0.58 -3.32 -0.19 0 0 Z " fill="#873D9A" transform="translate(329,420)"/>
<path d="M0 0 C4.29 0 8.58 0 13 0 C13 1.98 13 3.96 13 6 C12.34 5.34 11.68 4.68 11 4 C8.34 3.54 8.34 3.54 5.38 3.38 C3.87 3.26 3.87 3.26 2.34 3.15 C1.57 3.1 0.79 3.05 0 3 C0 2.01 0 1.02 0 0 Z " fill="#312C5F" transform="translate(293,241)"/>
<path d="M0 0 C1.33 2.67 0.67 4.17 0 7 C-0.66 7 -1.32 7 -2 7 C-2 7.66 -2 8.32 -2 9 C-4.96 10.48 -7.74 10.06 -11 10 C-11 8.68 -11 7.36 -11 6 C-8.36 6.66 -5.72 7.32 -3 8 C-3.66 6.35 -4.32 4.7 -5 3 C-4.01 3.33 -3.02 3.66 -2 4 C-1.34 2.68 -0.68 1.36 0 0 Z " fill="#7F3695" transform="translate(169,422)"/>
<path d="M0 0 C1.32 0.33 2.64 0.66 4 1 C5.52 3.89 6 5.72 6 9 C5.01 8.67 4.02 8.34 3 8 C3 7.01 3 6.02 3 5 C2.07 5.99 2.07 5.99 1.12 7 C-1 9 -1 9 -3 9 C-2.01 6.03 -1.02 3.06 0 0 Z " fill="#AE50C5" transform="translate(197,421)"/>
<path d="M0 0 C0.66 0 1.32 0 2 0 C2 3.3 2 6.6 2 10 C1.01 9.67 0.02 9.34 -1 9 C-1 8.34 -1 7.68 -1 7 C-1.99 7 -2.98 7 -4 7 C-4.33 7.66 -4.66 8.32 -5 9 C-5 5 -5 5 -3 3 C-2.34 3.33 -1.68 3.66 -1 4 C-0.67 2.68 -0.34 1.36 0 0 Z " fill="#AC4EC0" transform="translate(247,421)"/>
<path d="M0 0 C0.99 0 1.98 0 3 0 C3 1.32 3 2.64 3 4 C3.66 4 4.32 4 5 4 C5.29 4.8 5.58 5.61 5.88 6.44 C6.73 9.13 6.73 9.13 9 10 C9.41 12.32 9.74 14.66 10 17 C6.81 14.08 4.78 11.18 2.75 7.38 C1.97 5.93 1.97 5.93 1.17 4.46 C0 2 0 2 0 0 Z " fill="#681E98" transform="translate(138,171)"/>
<path d="M0 0 C3.32 0.99 4.77 1.69 6.88 4.5 C7.25 5.32 7.62 6.15 8 7 C7.67 7.66 7.34 8.32 7 9 C6.67 8.67 6.34 8.34 6 8 C4 7.96 2 7.96 0 8 C0 5.36 0 2.72 0 0 Z " fill="#AB54C1" transform="translate(208,422)"/>
<path d="M0 0 C3.83 1.45 5.19 3.38 7 7 C7 7.66 7 8.32 7 9 C5.68 8.34 4.36 7.68 3 7 C3 6.34 3 5.68 3 5 C1.35 5 -0.3 5 -2 5 C-1.34 3.35 -0.68 1.7 0 0 Z " fill="#6B1BA0" transform="translate(364,293)"/>
<path d="M0 0 C0.33 1.32 0.66 2.64 1 4 C4.63 4 8.26 4 12 4 C10 6 10 6 8.07 6.23 C1.02 6.1 -5.98 5.62 -13 5 C-13 4.67 -13 4.34 -13 4 C-8.71 4 -4.42 4 0 4 C0 2.68 0 1.36 0 0 Z " fill="#382B54" transform="translate(283,260)"/>
<path d="M0 0 C4.12 3.51 6.91 8.05 9 13 C8.67 13.66 8.34 14.32 8 15 C7.34 14.67 6.68 14.34 6 14 C6 13.34 6 12.68 6 12 C5.34 12 4.68 12 4 12 C3.33 10.38 2.66 8.75 2 7.12 C1.63 6.22 1.26 5.32 0.88 4.38 C0 2 0 2 0 0 Z " fill="#6F21A4" transform="translate(371,302)"/>
<path d="M0 0 C0.33 0 0.66 0 1 0 C1 4.95 1 9.9 1 15 C-3.62 15 -8.24 15 -13 15 C-13 14.67 -13 14.34 -13 14 C-12.22 13.94 -11.44 13.88 -10.63 13.82 C-9.62 13.73 -8.61 13.65 -7.56 13.56 C-6.55 13.48 -5.54 13.4 -4.5 13.32 C-2.06 13.27 -2.06 13.27 -1 12 C-0.77 9.98 -0.59 7.96 -0.44 5.94 C-0.35 4.83 -0.27 3.73 -0.18 2.59 C-0.12 1.74 -0.06 0.88 0 0 Z " fill="#623392" transform="translate(306,241)"/>
<path d="M0 0 C2.31 0 4.62 0 7 0 C6.36 0.17 5.72 0.33 5.06 0.5 C2.84 1.78 2.84 1.78 2.51 3.91 C2.27 5.94 2.13 7.97 2 10 C1.34 10 0.68 10 0 10 C0 6.7 0 3.4 0 0 Z " fill="#AD50C0" transform="translate(142,421)"/>
<path d="M0 0 C0.33 1.32 0.66 2.64 1 4 C-4.94 4 -10.88 4 -17 4 C-17 3.34 -17 2.68 -17 2 C-15.54 2.03 -15.54 2.03 -14.04 2.07 C-12.77 2.09 -11.5 2.11 -10.19 2.12 C-8.29 2.16 -8.29 2.16 -6.36 2.2 C-2.87 2.28 -2.87 2.28 0 0 Z " fill="#794989" transform="translate(219,260)"/>
<path d="M0 0 C0.66 0 1.32 0 2 0 C2 1.32 2 2.64 2 4 C3.32 4 4.64 4 6 4 C6.33 5.32 6.66 6.64 7 8 C4.03 8 1.06 8 -2 8 C-2 7.67 -2 7.34 -2 7 C-1.01 6.67 -0.02 6.34 1 6 C0.67 6 0.34 6 0 6 C0 4.02 0 2.04 0 0 Z " fill="#575275" transform="translate(268,248)"/>
<path d="M0 0 C0.66 0 1.32 0 2 0 C2.08 1.28 2.16 2.56 2.25 3.88 C2.46 6.05 2.46 6.05 3 8 C4.92 9.59 4.92 9.59 7 10 C4.69 10 2.38 10 0 10 C0 6.7 0 3.4 0 0 Z " fill="#AC4FC3" transform="translate(253,421)"/>
<path d="M0 0 C1.65 1.65 3.3 3.3 5 5 C4.67 5.66 4.34 6.32 4 7 C3.34 6.01 2.68 5.02 2 4 C0.02 4.27 0.02 4.27 -2 5 C-2.33 5.99 -2.66 6.98 -3 8 C-3.99 8.33 -4.98 8.66 -6 9 C-4.69 5.06 -3.08 2.77 0 0 Z " fill="#682496" transform="translate(259,92)"/>
<path d="M0 0 C0.66 0 1.32 0 2 0 C0.55 4.11 -1.51 7.43 -4 11 C-4.33 10.34 -4.66 9.68 -5 9 C-2.6 2.6 -2.6 2.6 0 0 Z " fill="#7229A1" transform="translate(266,377)"/>
<path d="M0 0 C0.66 0 1.32 0 2 0 C2 2.97 2 5.94 2 9 C1.01 9 0.02 9 -1 9 C-1.33 7.35 -1.66 5.7 -2 4 C-1.01 4 -0.02 4 1 4 C0.67 2.68 0.34 1.36 0 0 Z " fill="#52466F" transform="translate(256,253)"/>
<path d="M0 0 C2.75 3.4 6 7.48 6 12 C5.01 11.67 4.02 11.34 3 11 C3 9.68 3 8.36 3 7 C2.34 7 1.68 7 1 7 C0.67 4.69 0.34 2.38 0 0 Z " fill="#762BA4" transform="translate(268,105)"/>
<path d="M0 0 C0.66 0 1.32 0 2 0 C2 3.3 2 6.6 2 10 C1.01 10 0.02 10 -1 10 C-0.67 6.7 -0.34 3.4 0 0 Z " fill="#AC4EC0" transform="translate(263,421)"/>
<path d="M0 0 C2.44 1.56 2.44 1.56 5 4 C5.81 7.75 5.81 7.75 6 11 C3.03 8.45 1.58 5.55 0 2 C0 1.34 0 0.68 0 0 Z " fill="#6D289B" transform="translate(132,160)"/>
<path d="M0 0 C0.33 0 0.66 0 1 0 C1.12 2.88 1.12 2.88 1 6 C0.34 6.66 -0.32 7.32 -1 8 C-1.99 8 -2.98 8 -4 8 C-4 7.01 -4 6.02 -4 5 C-3.01 4.67 -2.02 4.34 -1 4 C-0.27 1.98 -0.27 1.98 0 0 Z " fill="#503E75" transform="translate(305,247)"/>
<path d="M0 0 C2.31 1.98 4.62 3.96 7 6 C5.68 6.33 4.36 6.66 3 7 C2.67 5.68 2.34 4.36 2 3 C1.34 3 0.68 3 0 3 C0 2.01 0 1.02 0 0 Z " fill="#6F299E" transform="translate(224,109)"/>
</svg>
