<svg width="29" height="26" fill="none" xmlns="http://www.w3.org/2000/svg"><path d="M28.214 4.286H9.357m-3.428 0H.785m27.428 17.143H9.357m-3.428 0H.785m18.857-8.572H.786m27.428 0h-5.143M7.643.857a1.714 1.714 0 011.714 1.715V6A1.714 1.714 0 115.93 6V2.572A1.714 1.714 0 017.643.857zm0 17.143a1.714 1.714 0 011.714 1.715v3.428a1.714 1.714 0 11-3.428 0v-3.428A1.714 1.714 0 017.643 18zm13.714-8.57a1.714 1.714 0 011.714 1.714v3.429a1.715 1.715 0 01-3.428 0v-3.429a1.714 1.714 0 011.714-1.714z" stroke="#000" stroke-width=".762" stroke-linecap="round" stroke-linejoin="round"/></svg>