<svg width="44" height="49" viewBox="0 0 44 49" fill="none" xmlns="http://www.w3.org/2000/svg">
<path d="M23 30.067V47.5H0.500001C0.499302 44.7525 1.12757 42.0413 2.33667 39.5741C3.54577 37.107 5.30361 34.9494 7.47549 33.2666C9.64737 31.5838 12.1756 30.4206 14.8666 29.866C17.5575 29.3114 20.3397 29.3801 23 30.067ZM18.5 27.25C11.0413 27.25 5 21.2088 5 13.75C5 6.29125 11.0413 0.25 18.5 0.25C25.9587 0.25 32 6.29125 32 13.75C32 21.2088 25.9587 27.25 18.5 27.25ZM32 36.25V28.375L43.25 38.5L32 48.625V40.75H25.25V36.25H32Z" fill="#4F0DA3"/>
</svg>
